<?xml version="1.0" encoding="UTF-8"?><svg xmlns="http://www.w3.org/2000/svg" viewBox="0 0 233.58 57.73"><g id="Layer_2"><rect width="233.58" height="57.73" style="fill:none;"/></g><g id="Layer_1"><path id="Path_778" d="M56.83,30.16c.66-.01,1.05,.37,1.06,1.13s-.68,1.17-1.71,1.18c-.72,.01-1.07-.37-1.08-.75,.15-.83,.86-1.47,1.73-1.56M19.75,46.53c29-.48,103,1.77,162.29,.8,21.32-.35,28.28-.08,32.87,1.38,2.85,.78,5.78,1.24,8.74,1.39h.72s3.48-.45,3.48-.45l.09-12.68-.12-6.53c-.09-5.38-.2-11.14-.57-14.59l-.87-8.43-42.24,.31c-44.99,.35-113.1-1.98-157.42-1.26-3.12,.05-6.25,.49-9.05,.53l-13.59,.22,.33,18.8c.12,6.91-.49,11.92-.43,14.99,.09,5.38,1.46,5.74,7.78,5.64l8-.12Zm-3.37-14.16q-.34,.39-.71,.4c-.32,0-.67-.37-.7-1.91s.31-1.92,.63-1.93c.86,.27,1.44,1.03,1.45,1.89-.09,.56-.32,1.09-.67,1.55" style="fill:#f0d6b5;"/></g></svg>