<?xml version="1.0" encoding="UTF-8"?><svg id="Layer_1" xmlns="http://www.w3.org/2000/svg" viewBox="0 0 431.67 425.06"><path d="M10.65,121.9L258.13,13.57c33-14.85,31.71-5.24,35.16,.29l37.35,59.93c2.37,3.81,2.15,8.68-.55,12.26l-103.58,137.09c-3.16,3.39-6.46,5.46-12.23,.09l-58.98-52.38c-14.02-11.55-53.82-36.37-70.53,2.06-8.25,18.97,15.31,51.66,17.74,54.58l84.14,101.33c21.04,20.21,32.17,17.32,49.08-3.3l124.45-177.02c3.41-4.64,10.51-4.09,13.15,1.02l54.74,102.72c2.48,4.92,9.35,21.45-6.6,31.35-19.32,11.99-66.54,40.7-123.74,72.04-66.03,36.19-127.59,69.29-127.59,69.29-15.4,1.1-19.29-4.88-23.65-10.45-12.51-16-33.2-47.38-61.59-103.39C58.94,259.89,14.77,174.26,1.3,140.6c-4.4-11,3.27-16.04,9.35-18.7Z" style="fill:#f0d7b6;"/><path d="M149.65,191.88l62.97,62.69c6.19,5.36,10.99,2.7,14.44-1.65,20.62-25.98,93.78-124.58,140.79-195.09C389.81,24.88,410.18,.92,417.33,.09c10.93-1.26,5.42,10.56-3.3,26.4-19.52,35.47-190.69,284.6-190.69,284.6-11.55,14.02-21.45,6.19-37.12-13.2l-76.72-93.22c-13.2-19.39-10.75-28.64-4.4-34.23,12.65-11.14,41.09,18.17,44.55,21.45Z" style="fill:#f0d7b6;"/></svg>