<?xml version="1.0" encoding="utf-8"?>
<!-- Generator: Adobe Illustrator 26.5.0, SVG Export Plug-In . SVG Version: 6.00 Build 0)  -->
<svg version="1.1" id="navigation" xmlns="http://www.w3.org/2000/svg" xmlns:xlink="http://www.w3.org/1999/xlink" x="0px" y="0px"
	 viewBox="0 0 99 33.9" style="enable-background:new 0 0 99 33.9;" xml:space="preserve">
<style type="text/css">
	.st0{fill:#E8634A;}
</style>
<path id="Path_778" class="st0" d="M23.4,18.2c0.3,0,0.5,0.1,0.5,0.2s-0.3,0.2-0.8,0.2c-0.3,0-0.5-0.1-0.5-0.1
	C22.7,18.4,23.1,18.2,23.4,18.2 M7.1,20.6c12.7,0,45,0.5,71,0.5c9.3,0,12.4,0.1,14.4,0.3c1.2,0.1,2.9,0.2,3.8,0.2h0.3l1.5-0.1
	l0.1-1.9v-1c0-0.7,0-1.5-0.1-2.2l-0.3-1.3l-18.5-0.1c-19.7-0.1-49.5-0.6-68.9-0.6c-1.4,0-2.7,0.1-4,0.1H0.5v2.9
	c-0.1,0.8-0.2,1.5-0.3,2.3c0,0.8,0.6,0.9,3.4,0.9L7.1,20.6z M5.7,18.5c-0.1,0-0.2,0.1-0.3,0.1c-0.2,0-0.3-0.1-0.3-0.3
	c0-0.2,0.1-0.3,0.3-0.3c0.2,0,0.6,0.1,0.6,0.3C6,18.3,5.9,18.4,5.7,18.5 M28.8,22.4c2.3,0.1,4.4,0.1,6.4,0.1
	c6.1,0,10.7-0.2,16.5-0.3c0.7,0,1.4,0,2.1-0.1c-0.2,0-0.3,0-0.5-0.1c-0.9-0.1-10.5-0.2-19.3-0.2c-7.2,0-13.6,0.1-13.6,0.2
	C20.5,22.2,22.8,22.3,28.8,22.4"/>
</svg>
