<svg id="Group_457" data-name="Group 457" xmlns="http://www.w3.org/2000/svg" xmlns:xlink="http://www.w3.org/1999/xlink" width="400" height="83" viewBox="0 0 400 83">
  <defs>
    <clipPath id="clip-path">
      <rect id="Rectangle_72" data-name="Rectangle 72" width="400" height="83" fill="#e8634a"/>
    </clipPath>
  </defs>
  <rect id="Rectangle_61" data-name="Rectangle 61" width="400" height="83" fill="#e8634a"/>
  <g id="Mask_Group_20" data-name="Mask Group 20" clip-path="url(#clip-path)">
    <g id="Group_394" data-name="Group 394" transform="translate(-5175.307 145.503)">
      <rect id="Rectangle_62" data-name="Rectangle 62" width="106.304" height="143.218" transform="translate(5175.424 -205.812)" fill="#f0d6b5"/>
      <g id="Group_393" data-name="Group 393" transform="translate(5175.307 -205.876)">
        <path id="Path_413" data-name="Path 413" d="M379.61,1996.01a3.794,3.794,0,0,0,.058-.661,3.212,3.212,0,1,0-6.4,0,3.793,3.793,0,0,0,.077.756h1.368a2.215,2.215,0,0,1-.133-.756,1.895,1.895,0,1,1,3.775,0,2.215,2.215,0,0,1-.133.756h1.394A.2.2,0,0,1,379.61,1996.01Z" transform="translate(-332.112 -1852.987)" fill="#e8634a"/>
        <path id="Path_414" data-name="Path 414" d="M319.734,1830.029a.218.218,0,0,0-.426.019c-.09.515-.173,1.037-.291,1.551a2.533,2.533,0,0,0,.377,1.807.217.217,0,0,0,.359.044.274.274,0,0,0,.056-.147,10.929,10.929,0,0,0-.073-3.269Zm-.3,2.374c-.224-.485.014-.924.054-1.367A1.941,1.941,0,0,1,319.435,1832.4Z" transform="translate(-292.853 -1735.871)" fill="#e8634a"/>
        <path id="Path_415" data-name="Path 415" d="M549.992,1494.977l6.5.081a.116.116,0,0,1,0-.012v-.308a.1.1,0,0,0-.1-.1h-6.4a.1.1,0,0,0-.1.1v.14A.1.1,0,0,0,549.992,1494.977Z" transform="translate(-459.809 -1493.506)" fill="#e8634a"/>
        <path id="Path_416" data-name="Path 416" d="M347.427,1844.607c-.208.134-.169.34-.109.514a4.525,4.525,0,0,1,.119,1.464c.006.383-.044.769-.009,1.148a1.6,1.6,0,0,0,.419,1.189C348.814,1847.575,348.563,1845.147,347.427,1844.607Zm.435,3.394c-.307.059-.184-2.244-.049-2.3S348.168,1847.941,347.862,1848Z" transform="translate(-313.315 -1746.528)" fill="#e8634a"/>
        <path id="Path_417" data-name="Path 417" d="M276.427,1629.275a39.668,39.668,0,0,0-6.419-8.1,41.123,41.123,0,0,0-8.066-6.567c-1.6-.97-3.006-2.216-4.551-3.277a47.24,47.24,0,0,1-5.016-3.617c-.1-.087-.649-.63-.919-.845l-.185-.078a3.448,3.448,0,0,1-.816-.527q-.906-.71-1.77-1.471a38.263,38.263,0,0,1-3.455-3.455,37.841,37.841,0,0,1-8.691-17.167,40.359,40.359,0,0,1-.768-10.846,36.44,36.44,0,0,1,2.44-11.684,25.912,25.912,0,0,1,6-9.162,34.367,34.367,0,0,1,8.831-5.574c2.977-1.393,5.747-2.437,8.685-3.949a46.932,46.932,0,0,0,7.682-4.849,30.552,30.552,0,0,0,6.256-6.634,24.27,24.27,0,0,0,2.306-4.219,6.62,6.62,0,0,0,.4-3.917c-.708-3.071-3.3-4.573-5.788-6.318a26.368,26.368,0,0,1-3.948-3.187,8.3,8.3,0,0,1-2.659-4.882,10.32,10.32,0,0,1,1.755-5.6,31.863,31.863,0,0,1,3.081-4.394,85.4,85.4,0,0,1,8.185-8.307.19.19,0,0,1,.069-.023H224.7v55.312l2.054-.087a.551.551,0,0,1,.122-.185h.579a.561.561,0,0,1,.106.151l4.129-.175v.007a.7.7,0,0,1-.708.7l-3.441-.019a.555.555,0,0,1-.087.113h-.579a.57.57,0,0,1-.089-.118l-2.087-.012v27.445c.684-.005,1.367-.012,2.049-.031.877-.025,3.036-.045,3.747-.076.5-.022.992-.07,1.49-.09.284-.012.569-.01.855-.007h.006a.576.576,0,0,1,.678.418c.252.975.76,2.941.76,2.941.025.1.054.206.085.308.071.239.159.474.214.717s.061.473.105.707c.08.428.26,1.181.382,1.691a.43.43,0,0,1-.413.53c-3.319.047-6.637.149-9.956.115v.722c3.38.04,6.758-.073,10.137-.119a.475.475,0,0,1,.477.411c.016.114.029.2.039.252a3.992,3.992,0,0,1,.068.519.877.877,0,0,0,0,.111l.029.581a.894.894,0,0,1-.271.634c.039.953.084,1.906.084,2.859,0,.812-.013,1.624-.028,2.435.386-.024.77-.056,1.157-.071.283-.011.569-.01.854-.007h.006a.575.575,0,0,1,.678.418c.252.974.76,2.941.76,2.941.026.1.054.206.085.307.072.239.159.474.214.717s.061.474.105.707c.08.429.26,1.181.382,1.69a.43.43,0,0,1-.413.531c-1.251.017-2.5.043-3.753.067,0,.022,0,.045,0,.064.013.22.037.438.057.657,1.291-.025,2.582-.052,3.874-.07a.475.475,0,0,1,.477.411c.015.114.029.2.039.252a4.043,4.043,0,0,1,.067.519.942.942,0,0,0,0,.111l.029.582a.9.9,0,0,1-.27.634c.039.952.084,1.906.084,2.859,0,1.5-.043,3-.068,4.494,0,.044,0,.088,0,.132.012.833.01,1.667.043,2.5.025.626.045,2.167.076,2.674.022.355.07.708.09,1.064.008.146.01.293.009.44a.2.2,0,0,1-.207.2l-.336-.011a.2.2,0,0,1-.193-.2c-.015-1.048-.081-6.079-.081-6.079,0-.186-.006-.371-.012-.557-.015-.435-.047-.87-.045-1.305,0-.415.048-.829.058-1.244a32.776,32.776,0,0,0,.01-3.53c-.038-.46-.059-.923-.092-1.384l-2.148.018c.039.91.083,1.821.084,2.732,0,1.435-.043,2.87-.068,4.305,0,.042,0,.084,0,.126.012.8.01,1.6.043,2.394.025.6.045,2.076.076,2.562.022.34.07.678.09,1.019,0,.079.007.159.008.239a.365.365,0,0,1-.377.367h-.007a.365.365,0,0,1-.354-.359c-.019-1.282-.078-5.657-.078-5.657,0-.178-.006-.356-.013-.534-.015-.417-.047-.834-.045-1.25,0-.4.048-.795.059-1.193a30.122,30.122,0,0,0,.009-3.382c-.039-.454-.06-.91-.095-1.364l-6.453.054q-.43,0-.86.013c-.671.015-1.343.047-2.014.045-.641,0-1.28-.048-1.921-.059l-.153,0v6.911c.51-.01,1.019-.023,1.529-.032.047,0,.094,0,.141-.007,1.6-.076,3.2-.17,4.8-.22.85-.027,2.347-.02,3.016-.015a.533.533,0,0,1,.481.312s.221.48.361.8a.188.188,0,0,1-.18.264c-.363-.016-.727-.062-1.088-.075-.605-.021-1.214,0-1.819,0-1.263,0-2.527,0-3.79.022-1.149.017-2.3.028-3.455.054v.7c1.142-.026,2.284-.036,3.422-.051,1.373-.018,2.746-.022,4.119-.024.887,0,1.818.111,2.719.089a.2.2,0,0,1,.207.212,7.9,7.9,0,0,0,.083,1.165c.016.168.041,1.183.042,1.259l.006,2.094a.7.7,0,0,1-.72.7c-.4-.014-.865-.03-1.143-.042a36.867,36.867,0,0,0-3.74.129c-.44.025-.877.084-1.317.1-.46.017-.922,0-1.384,0-.2,0-.394,0-.591.006l-1.282.026a23.839,23.839,0,0,0,8.657,14.255v-1.2a.2.2,0,0,0-.2-.2h-.568a.2.2,0,0,1-.2-.214q.015-.225.03-.448a.2.2,0,0,1,.2-.187h.538a.2.2,0,0,0,.2-.2v-.943a.2.2,0,0,0-.2-.2h-.415l-.2-.22.424-6.315a1.067,1.067,0,0,1,1.035-1.038l1.163.014,6.339.079a.2.2,0,0,0,.2-.2v-.271a.2.2,0,0,0-.2-.2h-4.682a.2.2,0,0,1-.2-.2v-.285a.2.2,0,0,1,.2-.2h22.58a.2.2,0,0,1,.2.2v.285a.2.2,0,0,1-.2.2h-3.249a.2.2,0,0,0-.2.2v.621a.273.273,0,0,1,0,.03l2.653.033a9.341,9.341,0,0,1,5.933,2.369l.02.014c6.513,5.151,6.83,5.2,7.713,6.229a8.51,8.51,0,0,1,1.216,1.862.2.2,0,0,0,.18.112h.037c.678,0,1.263.7,1.4,1.673l.224,1.559a.2.2,0,0,0,.062.119.915.915,0,0,1,.24.351.237.237,0,0,1,.009.034,7.354,7.354,0,0,1,.129,1.664h2.632a7.057,7.057,0,0,0-1.034-1.955A13.8,13.8,0,0,1,276.427,1629.275Zm-3.262-97.984v-8.112a2.061,2.061,0,0,1,2.061-2.061h0v5.025a7.459,7.459,0,0,1-.586,2.9,10.315,10.315,0,0,0-.821,4.009h-.654Zm-42.44,30.6a11.313,11.313,0,0,1-.89,4.4,15.656,15.656,0,0,0-1.246,6.084H227.6v-14.981a3.128,3.128,0,0,1,3.128-3.127h0Zm5.728-16.177a.592.592,0,0,1-.592.592h-2.047a.592.592,0,0,1-.592-.592v-.005h3.231Zm8.914,1.922a2.558,2.558,0,0,1-2.458-1.929c.232-.009,4.585.008,4.906.027A2.694,2.694,0,0,1,245.366,1547.636Zm12.61-15.644c0,.371-.008.745,0,1.115a1.8,1.8,0,0,0,.027.216.143.143,0,0,1-.262.1l0,0a.235.235,0,0,1-.027-.058,1.516,1.516,0,0,0-.107-.263,4.634,4.634,0,0,1-.31-.422l-.018-.029a.5.5,0,0,1-.085-.309v-.009h0a.015.015,0,0,1,0-.007c.013-.085.036-.171.047-.256.017-.143.017-.576.029-.751.016-.234.006-.467.007-.7,0-.012-.077-.875-.09-1.294,0-.08,0-.16,0-.24a.143.143,0,0,1,.242-.1c.1.1.206.2.306.3.047.049.1.1.152.153a.533.533,0,0,1,.153.4C258.018,1530.3,257.972,1531.415,257.976,1531.992Zm.165-3.005c-.124-.135-.259-.258-.39-.385a.088.088,0,0,1,.062-.151c.665.007,2.66.024,3.051.026.62,0,1.24-.018,1.861-.029l.1,0c1.115-.052,2.229-.118,3.344-.154.591-.019,1.634-.013,2.1-.01a.371.371,0,0,1,.335.217s.154.334.252.555a.131.131,0,0,1-.125.183c-.253-.011-.506-.043-.757-.052-.421-.015-.845,0-1.267,0-.88,0-1.759,0-2.638.015-1.784.027-3.585.028-5.366.187a.309.309,0,0,1-.242-.085C258.355,1529.2,258.205,1529.057,258.141,1528.987Zm10.395,4.524c-.277-.009-.6-.02-.8-.03a25.591,25.591,0,0,0-2.6.09c-.306.017-.611.059-.917.07s-.642,0-.963,0c-.137,0-.274,0-.411,0l-4.185.083a.139.139,0,0,1-.142-.128c-.007-.11-.026-.221-.034-.318-.023-.318-.007-.635-.011-.954a15.019,15.019,0,0,1,.062-2.332.141.141,0,0,1,.127-.119c1.785-.161,3.59-.166,5.38-.189.956-.012,1.912-.016,2.867-.016.617,0,1.265.077,1.893.062a.14.14,0,0,1,.144.148,5.48,5.48,0,0,0,.058.811c.011.117.028.824.029.876l0,1.458A.485.485,0,0,1,268.535,1533.511Zm3.58-11.4c.011.079.02.142.027.175a2.8,2.8,0,0,1,.047.361.641.641,0,0,0,0,.078l.02.4a.623.623,0,0,1-.188.442c.027.663.058,1.327.058,1.99,0,1.043-.03,2.085-.047,3.128,0,.031,0,.061,0,.092.009.58.007,1.161.03,1.739.017.436.031,1.509.053,1.862.015.248.049.493.063.74.006.1.007.2.006.307a.139.139,0,0,1-.144.138l-.234-.008a.138.138,0,0,1-.135-.136c-.011-.73-.056-4.232-.056-4.232q0-.194-.009-.388c-.011-.3-.032-.605-.031-.908s.034-.578.041-.867a22.8,22.8,0,0,0,.006-2.458c-.026-.32-.041-.642-.064-.963l-1.5.012c.027.634.058,1.268.058,1.9,0,1-.03,2-.047,3,0,.03,0,.059,0,.088.009.555.007,1.112.03,1.666.017.417.032,1.445.053,1.783.015.237.049.472.063.709q0,.083.006.166a.254.254,0,0,1-.262.256h0a.254.254,0,0,1-.247-.25c-.013-.893-.055-3.938-.055-3.938,0-.124,0-.248-.009-.372-.01-.29-.033-.58-.031-.87s.034-.553.041-.83a20.98,20.98,0,0,0,.007-2.354c-.027-.316-.042-.633-.066-.949l-4.492.037q-.3,0-.6.009c-.468.011-.935.033-1.4.031-.446,0-.891-.034-1.338-.041-1.264-.021-2.528-.074-3.793-.007-.471.025-.944.039-1.416.061.027.657.058,1.315.058,1.972,0,1.043-.03,2.085-.047,3.128,0,.03,0,.061,0,.092.009.579.007,1.16.03,1.739.017.436.031,1.509.053,1.862.015.248.049.493.063.741.006.1.007.205.006.309a.136.136,0,0,1-.142.135l-.238-.008a.136.136,0,0,1-.133-.134c-.011-.725-.056-4.233-.056-4.233,0-.129,0-.259-.009-.388-.011-.3-.033-.606-.031-.909s.034-.577.041-.867a22.783,22.783,0,0,0,.007-2.457c-.026-.316-.041-.633-.063-.948a.637.637,0,0,1-.072-.026.7.7,0,0,0-.4.021c-.048.008-.33.014-.35.014l-.212-.007c.026.591.053,1.181.053,1.772,0,1-.03,2-.047,3,0,.03,0,.059,0,.088.009.555.007,1.112.03,1.666.017.417.032,1.445.053,1.783.015.237.049.472.063.709.006.1.007.206.006.31a.117.117,0,0,1-.122.116l-.276-.008a.118.118,0,0,1-.114-.116c-.01-.667-.056-4.068-.056-4.068,0-.124,0-.248-.009-.372-.011-.29-.033-.58-.031-.87s.033-.553.041-.83a20.98,20.98,0,0,0,.007-2.354c-.024-.279-.038-.559-.058-.839,0,0-.1-.893-.1-1.009,0,0-.037-.233-.069-.437a.272.272,0,0,1,.268-.313c.443,0,.886,0,1.328.02.053.064,2.972-.181,4.344-.143,1.413.04,2.828.036,4.242.055,2.391.031,4.781-.049,7.172-.082A.331.331,0,0,1,272.115,1522.113Zm-20.751,5.626c-1.912-2.422-4.288-5.943-3.586-7.748a2.6,2.6,0,0,1,2.147-1.681c1.69,0,3.617,2.595,3.617,9.375v1.419c0,1.017,0,3.11.007,3.135a4.567,4.567,0,0,1-.719.035.8.8,0,0,0,.006-.106A6.846,6.846,0,0,0,251.364,1527.74Zm-4.069-12.986a.008.008,0,0,1,0-.005c.011-.07.03-.141.039-.211.014-.118.014-.474.024-.62.013-.193.005-.385.006-.578,0-.01-.063-.721-.074-1.068,0-.066,0-.132,0-.2a.118.118,0,0,1,.2-.083c.084.081.17.161.252.245.039.041.083.083.125.126a.439.439,0,0,1,.126.332c-.022.385-.06,1.3-.057,1.781,0,.306-.007.614,0,.919a1.523,1.523,0,0,0,.022.178.118.118,0,0,1-.216.083l0,0a.2.2,0,0,1-.022-.048,1.227,1.227,0,0,0-.088-.216,3.864,3.864,0,0,1-.255-.348l-.015-.024a.406.406,0,0,1-.07-.255v-.007Zm.507-3.2c.548.006,2.194.02,2.516.022.511,0,1.023-.015,1.535-.024.027,0,.054,0,.081,0,.919-.043,1.838-.1,2.758-.127.488-.016,1.347-.011,1.732-.008a.307.307,0,0,1,.276.179s.127.276.207.458a.108.108,0,0,1-.1.152c-.209-.009-.418-.036-.624-.043-.347-.012-.7,0-1.044,0-.726,0-1.451,0-2.176.013-1.471.022-2.956.023-4.425.154a.255.255,0,0,1-.2-.07c-.084-.081-.208-.2-.261-.256-.1-.111-.214-.213-.322-.318A.072.072,0,0,1,247.8,1511.554Zm5.284,4.281c-.265.01-.53,0-.795,0q-.17,0-.339,0l-3.452.068a.114.114,0,0,1-.117-.105c-.006-.091-.022-.183-.027-.262-.019-.262-.006-.524-.009-.787a12.367,12.367,0,0,1,.051-1.924.116.116,0,0,1,.1-.1c1.472-.133,2.961-.136,4.437-.156.788-.01,1.576-.013,2.365-.013.509,0,1.043.063,1.561.051a.115.115,0,0,1,.119.121,4.56,4.56,0,0,0,.047.669c.009.1.024.679.024.722l0,1.2a.4.4,0,0,1-.413.4c-.228-.008-.5-.017-.656-.024a21.177,21.177,0,0,0-2.147.074C253.589,1515.792,253.338,1515.826,253.085,1515.835Zm3.2,5.035c-.007.128-.029.27-.031.407a.263.263,0,0,1-.278.263c-.4-.026-1.1-.065-1.465-.062.038-.1.075-.194.116-.289a7.469,7.469,0,0,0,.348-1.294c.035-.154.049-.315.089-.468s.1-.312.157-.469c.022-.067.044-.134.063-.2,0,0,.264-.965.457-1.657a.071.071,0,0,1,.138.008c.127.785.267,1.569.345,2.361A9.2,9.2,0,0,1,256.289,1520.87Zm9.864-4.51c.61-.017,2.114-.031,2.608-.053.347-.015.691-.049,1.037-.063.2-.008.4-.007.595-.005h0a.4.4,0,0,1,.472.291c.176.678.529,2.047.529,2.047.018.072.038.143.059.214.05.166.111.33.148.5s.043.329.073.492c.056.3.181.823.266,1.177a.3.3,0,0,1-.288.37c-2.4.033-4.808.111-7.213.078-1.435-.02-2.871-.018-4.305-.059a18.844,18.844,0,0,0-3.185.1.15.15,0,0,1-.173-.149c0-.222,0-.6,0-.773a12.912,12.912,0,0,0-.1-1.407c-.083-.689-.28-1.9-.368-2.428a.233.233,0,0,1,.221-.271c.578-.023,1.959-.076,2.671-.076,1.461,0,2.922.03,4.382.047h.128C264.529,1516.381,265.342,1516.383,266.153,1516.359Zm-2.211-23.9c.007.056.013.113.024.169.045.241.146.664.215.95a.242.242,0,0,1-.232.3c-1.941.027-3.882.09-5.823.063-1.159-.016-2.318-.015-3.476-.048a15.216,15.216,0,0,0-2.571.08.121.121,0,0,1-.139-.12c0-.179,0-.482,0-.624a9.96,9.96,0,0,0-.069-1.024C255.894,1492.344,259.917,1492.415,263.942,1492.464Zm-13.739,1.3a5.974,5.974,0,0,0,.281-1.044c.029-.125.04-.255.072-.378.017-.063.037-.125.059-.186l.857.032c.007.063.016.125.022.188a7.41,7.41,0,0,1,.048,1.13c-.006.1-.024.218-.025.328a.213.213,0,0,1-.224.213c-.327-.02-.886-.053-1.183-.05C250.139,1493.923,250.17,1493.845,250.2,1493.768Zm-3.454,7.862c.173-.007.434-.017.724-.027v-7.091a1.722,1.722,0,0,1,1.722-1.722v4.2a6.228,6.228,0,0,1-.453,2.333,9.364,9.364,0,0,0-.6,2.26c.306-.008.6-.014.814-.014.429,0,.857.005,1.286.01-.011-.777-.02-1.5-.02-1.5,0-.1,0-.2-.007-.3-.009-.234-.026-.469-.025-.7s.027-.447.033-.671a16.916,16.916,0,0,0,.006-1.9c-.019-.225-.031-.452-.047-.677,0,0-.077-.721-.08-.815,0,0-.03-.188-.056-.353a.219.219,0,0,1,.216-.253c.358,0,.715,0,1.072.016.043.051,2.4-.146,3.507-.115,1.141.032,2.283.029,3.425.044,1.931.026,3.86-.04,5.79-.066a.267.267,0,0,1,.268.231c.009.064.016.115.022.141a2.275,2.275,0,0,1,.038.291.478.478,0,0,0,0,.063l.016.327a.5.5,0,0,1-.152.357h0c.022.535.047,1.071.047,1.606,0,.842-.024,1.684-.038,2.525,0,.025,0,.049,0,.073.007.469.005.937.024,1.4.014.352.025,1.218.043,1.5.012.2.039.4.05.6,0,.082.006.164.005.247a.113.113,0,0,1-.116.111l-.189-.006a.111.111,0,0,1-.109-.11c-.009-.589-.045-3.417-.045-3.417,0-.1,0-.209-.007-.313-.009-.244-.026-.489-.025-.734s.027-.466.033-.7a18.384,18.384,0,0,0,.005-1.984c-.021-.259-.033-.519-.052-.778l-1.207.01c.022.512.047,1.024.047,1.536,0,.806-.024,1.613-.038,2.419,0,.024,0,.047,0,.071.007.448.005.9.024,1.345.014.337.025,1.167.043,1.44.012.192.039.382.051.573,0,.045,0,.09,0,.135a.2.2,0,0,1-.212.206h0a.2.2,0,0,1-.2-.2c-.011-.721-.044-3.179-.044-3.179,0-.1,0-.2-.007-.3-.009-.234-.026-.469-.025-.7s.027-.447.033-.671a16.945,16.945,0,0,0,.006-1.9c-.022-.255-.034-.511-.053-.766l-3.626.03q-.241,0-.483.007c-.377.009-.755.026-1.132.025-.36,0-.72-.027-1.08-.033-1.021-.017-2.041-.06-3.062-.005-.38.02-.762.032-1.143.049.022.531.047,1.062.047,1.592,0,.842-.024,1.683-.038,2.526,0,.024,0,.049,0,.074.007.468.005.937.024,1.4,0,.053,0,.119.006.191l.548.008c0-.075,0-.151,0-.226,0-.01-.062-.706-.073-1.045,0-.065,0-.129,0-.194a.116.116,0,0,1,.2-.081c.083.08.167.158.247.24l.123.123a.431.431,0,0,1,.123.326c-.011.192-.026.521-.037.859l.375,0a6.261,6.261,0,0,1,.058-.724.114.114,0,0,1,.1-.1c1.441-.13,2.9-.134,4.344-.153.772-.01,1.543-.012,2.315-.013.5,0,1.022.063,1.528.05a.114.114,0,0,1,.116.12,4.4,4.4,0,0,0,.046.654c.009.094.023.665.023.708l0,1.176a.392.392,0,0,1-.4.393c-.223-.008-.486-.017-.642-.024a15.51,15.51,0,0,0-1.683.047c.028.086.055.172.075.26.03.133.035.272.06.406.046.246.149.678.219.97a.247.247,0,0,1-.237.3c-1.983.028-3.965.092-5.948.064-1.183-.016-2.367-.015-3.551-.049a15.628,15.628,0,0,0-2.627.081.124.124,0,0,1-.142-.122c0-.183,0-.492,0-.638a10.5,10.5,0,0,0-.083-1.16c-.068-.568-.23-1.566-.3-2A.192.192,0,0,1,246.749,1501.63Zm14.834-1.365c-.2-.009-.409-.035-.611-.042-.34-.012-.682,0-1.022,0-.71,0-1.42,0-2.13.012-1.44.022-2.894.023-4.332.151a.249.249,0,0,1-.2-.068c-.082-.08-.2-.195-.255-.251-.1-.108-.209-.208-.315-.311a.071.071,0,0,1,.05-.122l2.463.022c.5,0,1-.015,1.5-.024l.079,0c.9-.042,1.8-.1,2.7-.124.478-.015,1.319-.011,1.7-.008a.3.3,0,0,1,.27.175s.124.27.2.448A.106.106,0,0,1,261.582,1500.265Zm-16.4,5.3a6.156,6.156,0,0,0,.287-1.067c.029-.127.04-.26.074-.385s.086-.258.13-.386c.019-.055.036-.11.052-.166,0,0,.218-.8.377-1.366a.058.058,0,0,1,.114.007c.105.648.22,1.294.285,1.947a7.588,7.588,0,0,1,.048,1.155c-.006.106-.024.222-.026.335a.217.217,0,0,1-.229.217c-.334-.021-.9-.053-1.208-.051C245.114,1505.724,245.145,1505.644,245.179,1505.565Zm.054.65c.365,0,.73,0,1.1.017.044.053,2.451-.149,3.582-.118,1.165.033,2.332.03,3.5.045,1.972.026,3.943-.041,5.915-.068a.272.272,0,0,1,.274.236c.009.065.017.117.023.145a2.272,2.272,0,0,1,.038.3.506.506,0,0,0,0,.064l.016.334a.515.515,0,0,1-.155.364c.022.547.048,1.094.048,1.641,0,.86-.025,1.72-.039,2.58,0,.025,0,.05,0,.075.007.478.005.957.024,1.434.014.359.026,1.244.044,1.535.013.2.04.406.052.61,0,.084.006.168.005.253a.115.115,0,0,1-.119.114l-.193-.006a.114.114,0,0,1-.111-.112c-.009-.6-.046-3.49-.046-3.49,0-.107,0-.214-.007-.32-.009-.25-.027-.5-.026-.749s.027-.476.034-.715a18.871,18.871,0,0,0,.005-2.026c-.022-.265-.034-.53-.053-.795l-1.233.01c.022.523.048,1.046.048,1.569,0,.824-.025,1.647-.039,2.471,0,.024,0,.049,0,.073.007.458.006.917.025,1.374.014.344.026,1.192.043,1.471.012.2.04.389.052.585,0,.046,0,.092,0,.137a.209.209,0,0,1-.216.211h0a.21.21,0,0,1-.2-.206c-.011-.736-.045-3.247-.045-3.247q0-.153-.007-.307c-.009-.239-.027-.478-.026-.718s.028-.456.034-.684a17.2,17.2,0,0,0,.006-1.942c-.022-.261-.035-.522-.054-.783l-3.7.031c-.165,0-.329,0-.494.007-.386.008-.771.027-1.156.026-.368,0-.735-.027-1.1-.034-1.042-.017-2.085-.061-3.128-.005-.388.021-.778.033-1.168.05.022.542.047,1.084.048,1.626,0,.86-.025,1.72-.039,2.58,0,.025,0,.05,0,.075.007.478.006.957.025,1.434.014.359.026,1.244.044,1.535.012.2.04.406.052.611,0,.085.006.17.005.255a.112.112,0,0,1-.117.111l-.2-.006a.112.112,0,0,1-.109-.111c-.009-.6-.046-3.491-.046-3.491,0-.107,0-.213-.007-.32-.009-.25-.027-.5-.026-.749s.028-.476.034-.715a18.815,18.815,0,0,0,.005-2.027c-.021-.26-.034-.521-.052-.782a.465.465,0,0,1-.059-.021.578.578,0,0,0-.329.017c-.04.007-.272.012-.289.012l-.175-.006c.021.487.043.974.043,1.462,0,.824-.025,1.647-.039,2.471,0,.024,0,.049,0,.073.007.458.005.917.024,1.374.014.344.026,1.192.044,1.471.012.2.04.389.052.585,0,.085.006.17.005.256a.1.1,0,0,1-.1.1l-.228-.007a.1.1,0,0,1-.094-.1c-.009-.55-.047-3.355-.047-3.355,0-.1,0-.2-.007-.307-.009-.239-.027-.478-.025-.718s.027-.456.034-.684a17.335,17.335,0,0,0,.006-1.942c-.02-.23-.032-.461-.048-.692,0,0-.078-.736-.082-.832,0,0-.031-.192-.057-.36A.225.225,0,0,1,245.233,1506.215Zm-6.153.392a2.071,2.071,0,0,1,1.714-1.341c1.349,0,2.887,2.071,2.887,7.484v1.133c0,.812,0,2.482.005,2.5a3.659,3.659,0,0,1-.574.028.624.624,0,0,0,0-.085,5.463,5.463,0,0,0-1.175-3.535C240.416,1510.86,238.519,1508.049,239.079,1506.608Zm3.48,21.623c-.542-.02-.947.063-.982.686-.191-.3-.129-.68-.506-.863a2.291,2.291,0,0,0,.807-.8C241.83,1527.752,242.273,1527.89,242.56,1528.231Zm-1.7-6.006c-.009.224-.125.481-.4.431a.615.615,0,0,1-.518-.621c.03-.2.072-.439.329-.414A.577.577,0,0,1,240.864,1522.225Zm-.931,3.8c-.009.223-.125.481-.4.43a.615.615,0,0,1-.518-.621c.03-.2.072-.439.329-.413A.576.576,0,0,1,239.934,1526.023Zm-1.148-8.274a.577.577,0,0,1,.59.6c-.009.223-.125.481-.4.431a.615.615,0,0,1-.518-.621C238.487,1517.968,238.529,1517.724,238.786,1517.749Zm-1.268-18.779a.577.577,0,0,1,.59.6c-.009.224-.125.481-.4.431a.616.616,0,0,1-.518-.621C237.219,1499.189,237.261,1498.945,237.518,1498.97Zm-.553,24.37a.577.577,0,0,1,.589.6c-.009.223-.125.481-.4.43a.615.615,0,0,1-.518-.621C236.667,1523.559,236.709,1523.315,236.965,1523.34Zm-.41-2.211a.615.615,0,0,1-.518-.621c.03-.2.072-.439.329-.414a.577.577,0,0,1,.589.6C236.947,1520.922,236.83,1521.18,236.555,1521.13Zm.927,7.081a.577.577,0,0,1,.589.6c-.009.223-.125.481-.4.43a.615.615,0,0,1-.518-.621C237.184,1528.429,237.226,1528.185,237.483,1528.21Zm-.383-13.832c-.049.5.394.639.681.98-.542-.019-.947.063-.982.686-.191-.3-.128-.68-.506-.863A2.293,2.293,0,0,0,237.1,1514.378Zm-1.144-18.7c-.049.5.394.64.681.98-.542-.019-.947.063-.982.686-.191-.3-.128-.68-.506-.863A2.3,2.3,0,0,0,235.956,1495.677Zm-1.578,26.909a2.293,2.293,0,0,0,.807-.8c-.049.5.394.64.681.98-.542-.019-.948.063-.982.686C234.693,1523.149,234.755,1522.769,234.378,1522.586Zm.158,2.767c-.009.223-.125.481-.4.43a.615.615,0,0,1-.518-.621c.03-.2.072-.439.329-.414A.577.577,0,0,1,234.536,1525.352Zm-.657-9.646c.03-.2.072-.439.329-.414a.577.577,0,0,1,.589.6c-.009.223-.125.481-.4.43A.615.615,0,0,1,233.878,1515.706Zm.847-15.247a.577.577,0,0,1,.589.6c-.009.223-.125.481-.4.431a.615.615,0,0,1-.518-.621C234.427,1500.678,234.469,1500.434,234.725,1500.459Zm.074,3.877c-.049.5.394.64.681.98-.542-.019-.948.063-.982.686-.191-.3-.129-.68-.506-.863A2.3,2.3,0,0,0,234.8,1504.336Zm-.778,5.469a.577.577,0,0,1,.59.6c-.009.223-.125.481-.4.431a.614.614,0,0,1-.518-.621C233.723,1510.024,233.765,1509.78,234.022,1509.806Zm-.3,8.5a.577.577,0,0,1,.589.6c-.009.223-.125.481-.4.43a.615.615,0,0,1-.518-.621C233.424,1518.526,233.466,1518.282,233.723,1518.308Zm-.453-5.129c-.009.223-.125.481-.4.431a.615.615,0,0,1-.518-.621c.03-.2.072-.439.329-.414A.577.577,0,0,1,233.27,1513.179Zm-3.2,13.635c-.049.5.394.639.681.98-.542-.019-.947.063-.982.686-.191-.3-.128-.68-.506-.863A2.294,2.294,0,0,0,230.074,1526.813Zm-.4-1.838c.03-.2.072-.439.329-.414a.577.577,0,0,1,.589.6c-.009.223-.125.481-.4.43A.615.615,0,0,1,229.672,1524.976Zm.862-5.315c-.191-.3-.128-.68-.506-.863a2.29,2.29,0,0,0,.807-.8c-.049.5.394.64.681.981C230.973,1518.956,230.568,1519.038,230.533,1519.661Zm1.193,1.01a.577.577,0,0,1,.589.6c-.009.223-.125.481-.4.431a.615.615,0,0,1-.518-.621C231.428,1520.89,231.47,1520.646,231.726,1520.671Zm.327-14.047a.577.577,0,0,1,.59.6c-.009.223-.125.481-.4.43a.615.615,0,0,1-.518-.621C231.755,1506.843,231.8,1506.6,232.053,1506.625Zm-.263-4.019c.03-.2.072-.439.329-.414a.577.577,0,0,1,.589.6c-.009.223-.125.481-.4.431A.615.615,0,0,1,231.79,1502.605Zm.439,26.132a.577.577,0,0,1,.589.6c-.009.224-.125.481-.4.43a.614.614,0,0,1-.518-.621C231.93,1528.957,231.972,1528.712,232.229,1528.738Zm-.108-30.538a.577.577,0,0,1,.589.6c-.009.223-.125.481-.4.43a.615.615,0,0,1-.518-.621C231.822,1498.418,231.864,1498.174,232.12,1498.2Zm-.81-3.8a.577.577,0,0,1,.59.6c-.009.224-.125.481-.4.431a.615.615,0,0,1-.518-.621C231.012,1494.62,231.054,1494.375,231.311,1494.4Zm-.2,21.31c-.009.223-.125.481-.4.43a.614.614,0,0,1-.518-.621c.03-.2.072-.44.329-.414A.577.577,0,0,1,231.111,1515.711Zm-.3-5.6c-.009.223-.125.481-.4.43a.615.615,0,0,1-.518-.621c.03-.2.072-.439.328-.414A.577.577,0,0,1,230.814,1510.112Zm-.78-5.215a.615.615,0,0,1-.518-.621c.03-.2.072-.439.329-.414a.577.577,0,0,1,.589.6C230.426,1504.69,230.31,1504.947,230.035,1504.9Zm-.343-6.431a.576.576,0,0,1,.589.6c-.009.223-.125.481-.4.43a.615.615,0,0,1-.518-.621C229.392,1498.685,229.435,1498.441,229.691,1498.466Zm.163,13.522c-.049.5.394.64.681.98-.542-.019-.948.063-.982.686-.191-.3-.129-.68-.506-.863A2.293,2.293,0,0,0,229.854,1511.988Zm-.791,6.626c-.009.223-.125.481-.4.431a.616.616,0,0,1-.518-.621c.03-.2.072-.44.329-.414A.577.577,0,0,1,229.063,1518.614Zm.01,13.812c-.009.224-.125.481-.4.431a.615.615,0,0,1-.518-.621c.03-.2.072-.439.329-.414A.577.577,0,0,1,229.073,1532.426Zm-.458-32.916c-.542-.019-.947.064-.981.686-.191-.3-.129-.68-.506-.863a2.292,2.292,0,0,0,.807-.8C227.886,1499.031,228.329,1499.169,228.615,1499.51Zm-1.035,10.272a.577.577,0,0,1,.59.6c-.009.224-.125.481-.4.431a.615.615,0,0,1-.518-.621C227.282,1510,227.324,1509.757,227.58,1509.782Zm.463-16.073a.577.577,0,0,1,.59.6c-.009.224-.125.481-.4.43a.615.615,0,0,1-.518-.621C227.744,1493.929,227.786,1493.684,228.043,1493.71Zm-.738,3.124a.577.577,0,0,1,.589.6c-.009.223-.125.481-.4.43a.615.615,0,0,1-.518-.621C227.006,1497.053,227.048,1496.809,227.3,1496.834Zm-1.391-4.636a.577.577,0,0,1,.589.6c-.009.223-.125.481-.4.43a.614.614,0,0,1-.518-.621C225.615,1492.416,225.657,1492.172,225.913,1492.2Zm-.411,14.648c.03-.195.072-.439.329-.414a.577.577,0,0,1,.59.6c-.009.223-.125.481-.4.43A.614.614,0,0,1,225.5,1506.846Zm.749,21.359a.616.616,0,0,1-.518-.621c.03-.2.072-.439.329-.414a.577.577,0,0,1,.589.6C226.643,1528,226.527,1528.255,226.251,1528.2Zm.441-4.406a.615.615,0,0,1-.518-.621c.03-.2.072-.44.329-.414a.577.577,0,0,1,.59.6C227.083,1523.591,226.967,1523.849,226.692,1523.8Zm.854-9.184a.614.614,0,0,1-.518-.621c.03-.2.072-.439.329-.414a.577.577,0,0,1,.589.6C227.937,1514.408,227.821,1514.665,227.546,1514.615Zm.115,6.676c.03-.2.072-.44.329-.414a.577.577,0,0,1,.589.6c-.009.223-.125.481-.4.43A.615.615,0,0,1,227.661,1521.29Zm2.986,23.882a2.823,2.823,0,0,1-2.732-2.906V1540.1c0-5.438,4.145-9.847,9.258-9.847h5.33c8.886,0,14.9,4.577,14.9,10.222v1.79a2.824,2.824,0,0,1-2.733,2.907l-12.434.027Zm3.559,22.135h-.992v-14.981a3.128,3.128,0,0,1,3.128-3.128h0v7.626a11.318,11.318,0,0,1-.89,4.4A15.651,15.651,0,0,0,234.206,1567.308Zm1.37,50.144h0Zm8.256-14.983c-.049.5.394.64.681.98-.542-.019-.947.063-.982.686-.191-.3-.128-.68-.506-.863A2.291,2.291,0,0,0,243.832,1602.468Zm-1.239,12.324a.615.615,0,0,1-.518-.621c.03-.2.072-.439.329-.414a.577.577,0,0,1,.59.6C242.984,1614.586,242.868,1614.844,242.593,1614.793Zm.41-8.33c.03-.2.072-.44.329-.414a.577.577,0,0,1,.59.6c-.009.223-.125.481-.4.43A.614.614,0,0,1,243,1606.463Zm1.077,6.443a.615.615,0,0,1-.518-.621c.03-.195.072-.439.329-.414a.577.577,0,0,1,.589.6C244.471,1612.7,244.355,1612.957,244.08,1612.906Zm.484-2.867a.614.614,0,0,1-.518-.621c.03-.195.072-.439.329-.414a.577.577,0,0,1,.59.6C244.955,1609.833,244.839,1610.09,244.565,1610.039Zm2.567-4.982a.577.577,0,0,1,.589.6c-.009.223-.125.481-.4.431a.615.615,0,0,1-.518-.621C246.833,1605.276,246.875,1605.032,247.132,1605.057Zm-1.2,4.735a2.3,2.3,0,0,0,.807-.8c-.049.5.394.64.681.98-.542-.019-.948.063-.982.686C246.244,1610.356,246.306,1609.976,245.929,1609.793Zm.919,5.016a.615.615,0,0,1-.518-.621c.03-.2.072-.439.329-.414a.577.577,0,0,1,.59.6C247.239,1614.6,247.123,1614.86,246.848,1614.809Zm.969-2.108a.616.616,0,0,1-.518-.621c.03-.2.072-.439.329-.414a.577.577,0,0,1,.59.6C248.208,1612.494,248.092,1612.752,247.817,1612.7Zm2-2.364a.615.615,0,0,1-.518-.621c.03-.2.072-.44.329-.414a.577.577,0,0,1,.589.6C250.2,1610.13,250.089,1610.388,249.813,1610.337Zm.971,4.107c-.191-.3-.128-.68-.506-.863a2.292,2.292,0,0,0,.807-.8c-.049.5.394.64.681.98C251.225,1613.739,250.819,1613.821,250.785,1614.444Zm1.644-1.769a.615.615,0,0,1-.518-.621c.03-.2.072-.44.329-.414a.577.577,0,0,1,.589.6C252.82,1612.468,252.7,1612.726,252.429,1612.675Zm2.006-.96c-.191-.3-.128-.68-.506-.863a2.292,2.292,0,0,0,.807-.8c-.049.5.394.64.681.98C254.875,1611.01,254.47,1611.092,254.436,1611.715Zm1.158,2.487a.615.615,0,0,1-.518-.621c.03-.195.072-.439.329-.414a.577.577,0,0,1,.589.6C255.985,1613.995,255.869,1614.252,255.594,1614.2Z" transform="translate(-224.698 -1490.612)" fill="#e8634a"/>
        <path id="Path_418" data-name="Path 418" d="M482.89,1743.356c-.023-1.314-.062-2.629-.062-3.944,0-.834.041-1.669.077-2.5l-1.968-.016c-.03.422-.049.846-.084,1.268a29.972,29.972,0,0,0,.009,3.234c.01.381.052.76.053,1.141,0,.4-.027.8-.041,1.2-.006.171-.01.34-.012.511,0,0,0,.358-.012.895.727-.012,1.429-.024,1.779-.04.081,0,.161-.008.242-.013.012-.537.013-1.074.021-1.611C482.893,1743.434,482.891,1743.395,482.89,1743.356Z" transform="translate(-409.862 -1668.653)" fill="#e8634a"/>
        <path id="Path_419" data-name="Path 419" d="M278.951,1991.856a3.222,3.222,0,0,0-2.976,2.216q.605.268,1.227.5a1.9,1.9,0,0,1,1.749-1.286,1.979,1.979,0,0,1,1.888,2.06,2.265,2.265,0,0,1-.019.273q.636.13,1.285.225a3.9,3.9,0,0,0,.044-.609A3.349,3.349,0,0,0,278.951,1991.856Z" transform="translate(-261.77 -1852.987)" fill="#e8634a"/>
        <path id="Path_420" data-name="Path 420" d="M324.182,1605.734c-5.089-5.106-10.46-10.273-14.119-16.551-3.582-6.147-5.39-13.776-2.866-20.651,2.513-6.843,8.262-11.581,14.1-15.575,5.522-3.775,11.847-7.295,15.45-13.148a16.381,16.381,0,0,0,2.607-8.883,10.638,10.638,0,0,0-3.629-7.677c-2.174-2.068-4.737-3.706-6.694-6-2.149-2.523-3.771-5.878-2.929-9.26a11.447,11.447,0,0,1,2.415-4.185c1.137-1.445,2.323-2.852,3.514-4.252,2.274-2.673,5.2-6.131,7.469-8.972H324.133c.022.013-2.287-.008-2.308-.01-4.369-.336-3.894,6.323-4.968,7.351a32.91,32.91,0,0,0-6.3,7.828,9.09,9.09,0,0,0-.9,2.124,1.586,1.586,0,0,0,.243,1.585,12.468,12.468,0,0,0,2.9,2.992c1.269.968,2.621,1.822,3.9,2.777a13.8,13.8,0,0,1,3.728,3.736,10.786,10.786,0,0,1,.507,10.449c-2.6,5.908-7.31,10.588-12.623,14.12a57.233,57.233,0,0,1-8.233,4.479c-3,1.351-5.97,2.5-8.9,4.135-2.815,1.568-5.72,3.668-7.306,6.36a42.766,42.766,0,0,0-2.43,4.66,26.658,26.658,0,0,0-1.462,5.338,35.814,35.814,0,0,0,1.556,19.887,34.627,34.627,0,0,0,4.445,8,46.5,46.5,0,0,0,6.433,6.582l.034.031a2.4,2.4,0,0,1,.821.458c.361.282.691.607,1.037.907a22.685,22.685,0,0,0,1.9,1.495c1.587,1.106,3.219,2.149,4.762,3.319a27.527,27.527,0,0,0,2.378,1.734q1.126.679,2.2,1.436a46.477,46.477,0,0,1,4.263,3.391,58.666,58.666,0,0,1,7.376,8.016,26.862,26.862,0,0,1,2.814,4.456,6.416,6.416,0,0,0,.473.915,7.567,7.567,0,0,1,.863,1.392c.371.809-1.146,1.623-.8,2.442.1.238.865.478.965.718h26.1a23.866,23.866,0,0,0,6.1-.79c-4.062-3.969-8.6-7.5-12.809-11.272Q332.323,1613.909,324.182,1605.734Zm9.079-75.611a.268.268,0,0,1,.51.1,4.268,4.268,0,0,1-.151,1.8.269.269,0,0,1-.51-.016A2.832,2.832,0,0,1,333.261,1530.123Zm-2.5,1.076a11.766,11.766,0,0,1,4.2,4.556.23.23,0,0,1-.37.266l0,0a.579.579,0,0,0-.541-.211,4.4,4.4,0,0,0-.247,1.9.134.134,0,0,1-.258.042.87.87,0,0,0-.492-.578,1.831,1.831,0,0,0-.389.788.24.24,0,0,1-.469-.066,3.027,3.027,0,0,0-.019-.414,7.555,7.555,0,0,1-.052-2.064,1.96,1.96,0,0,0-.26-1.464,11.457,11.457,0,0,1-1.027-2.058A.754.754,0,0,1,330.763,1531.2Zm-4.68-14.071a.521.521,0,0,1,.808,0c.093.12.1.24.091.489a16.548,16.548,0,0,1-.176,2.054,1.418,1.418,0,0,1-.066.129c-.225.133-.258.423-.524.513l-.005,0a.479.479,0,0,1-.626-.372,2.633,2.633,0,0,1-.035-.554C325.734,1518.632,325.571,1517.757,326.083,1517.128Zm-1.991,8.584c.093-.67.265-1.33.347-2.007a9.423,9.423,0,0,1,.361-1.668c.02-.064.041-.128.062-.191a1.32,1.32,0,0,1,2.246-.417c.067.078.133.158.2.239a6.589,6.589,0,0,1,1.188,2.491c.348,1.406.907,3.7,1.079,4.731a.136.136,0,0,1-.244.1c-.049-.066-.095-.13-.137-.2a4.572,4.572,0,0,1-1.07-2.173c-.008-.125-.041-.348-.28-.3a.344.344,0,0,0-.115.306c.046.769.051,1.543.146,2.305a39.746,39.746,0,0,1,.284,4.687,26.839,26.839,0,0,0,.1,3.3,5.562,5.562,0,0,1,.035.816.259.259,0,0,1-.487.119,10.2,10.2,0,0,1-.621-1.417,28.834,28.834,0,0,1-.971-4.092c-.03-.154,0-.348-.243-.347a44.873,44.873,0,0,0-.632,4.45q-.11.846-.206,1.693l0,.012a.2.2,0,0,1-.387-.036c-.035-.868-.091-2.1-.152-2.87a23.332,23.332,0,0,1,.064-3.46,37.68,37.68,0,0,0,.1-5.179c-.01-.147-.027-1.129-.151-1.17s-.451,3.372-.759,4.348a.124.124,0,0,1-.242-.051C323.733,1528.58,323.942,1526.8,324.092,1525.712Zm-25.085,25.873h0a1.247,1.247,0,0,1,.41-.562,2.876,2.876,0,0,1,.6-.346.915.915,0,0,1,.934.115c.506.7.2,1.722-.841,2.735a.826.826,0,0,1-.642.148c-.317-.049-.42-.214-.38-.413a1.842,1.842,0,0,0-.1-.764A1.468,1.468,0,0,1,299.007,1551.585Zm-5.2,13.174a1.945,1.945,0,0,1,.109.96.492.492,0,0,1-.95.045,2.51,2.51,0,0,1-.116-.85A.493.493,0,0,1,293.8,1564.758Zm-2.36,13.59a.648.648,0,0,1,.794-.329l.027.011a.622.622,0,0,1,.215.151c.891.962.646,2.124.476,3.232a.64.64,0,0,1-.257.43l-.02.014a.665.665,0,0,1-.843-.11A3.039,3.039,0,0,1,291.444,1578.349Zm2.455,11.29c-.149,1.449-.239,2.9-.384,4.353-.043.433-.195.853-.277,1.283a8.015,8.015,0,0,0-.21,1.383,3.959,3.959,0,0,1-.071.72.218.218,0,0,1-.431-.024c-.165-1.718-.475-3.375-.616-5.055a.687.687,0,0,0-.239.715,13.263,13.263,0,0,1-.365,3.594c-.1.581.042,1.62-.206,1.761s-.22-.5-.232-.769a51.428,51.428,0,0,0-.629-5.235,12.119,12.119,0,0,0-.559-2.151,8.579,8.579,0,0,1-.1-4.946,15.856,15.856,0,0,1,.731-2.53,1.277,1.277,0,0,1,.4-.648.207.207,0,0,1,.144-.032,2.96,2.96,0,0,1,2.389,1.493,2.529,2.529,0,0,1,.277.681A16.476,16.476,0,0,1,293.9,1589.638Zm1.557-24.6c-.1.176-.208.348-.293.526a5,5,0,0,0-.394,1.241,33.2,33.2,0,0,0-.431,3.582.146.146,0,0,1-.258.083.255.255,0,0,0-.153-.1.142.142,0,0,0-.154.061c-.085.142-.046.333-.078.507a.146.146,0,0,1-.285.014l-.577-2.086a.144.144,0,0,0-.149-.107.7.7,0,0,0-.381.2.146.146,0,0,1-.236-.137,3.358,3.358,0,0,1,.773-1.4c.386-.5.88-.894,1.3-1.372.349-.4.736-.773,1.083-1.182A.146.146,0,0,1,295.455,1565.034Zm4.654,26.911a21.4,21.4,0,0,1-.358,4.331,34.554,34.554,0,0,0-.5,4.922c.005.332-.019.665-.042,1a.505.505,0,0,1-.129.31l-.013.014a.768.768,0,0,1-1.011.067l-.009-.007a.405.405,0,0,1-.136-.209c-.017-.058-.043-.115-.065-.172a14.608,14.608,0,0,1-.734-2.869c-.224-1.356-.53-2.7-.742-4.056a35.821,35.821,0,0,1-.745-5.635,5.377,5.377,0,0,1,1.346-3.528,5.849,5.849,0,0,1,.609-.775c.538-.464.859-.465,1.319.082a2.919,2.919,0,0,1,.548.818,7.47,7.47,0,0,1,.671,3.138A17.431,17.431,0,0,0,300.109,1591.946Zm-3.95-9.571a.525.525,0,0,1,.154-.334,2.138,2.138,0,0,1,.485-.331.459.459,0,0,1,.145-.052.767.767,0,0,1,.244,0,1.269,1.269,0,0,1,1.027,1.006,3.557,3.557,0,0,1,.107,1.057c-.058.648-.148.841-.7,1.088a.543.543,0,0,1-.44,0C296.3,1584.418,296.04,1583.771,296.159,1582.375Zm5.711-20.049c-.126.008-.49-1.646-.947-2.748a.23.23,0,0,0-.441.114v.006a5.474,5.474,0,0,1,.12.815,15.355,15.355,0,0,0,.825,4.2,4.056,4.056,0,0,1,.05,2.195c-.215.733.248,2.408.3,3.139a.209.209,0,0,1-.334.184l0,0c-.252-.188-1.018-1.3-1.3-1.435a.423.423,0,0,0-.567.148.464.464,0,0,0-.042.3,2.125,2.125,0,0,1,.016.914c-.064.267-.13.524-.206.775a.2.2,0,0,1-.4-.019,7.163,7.163,0,0,1-.1-.842,13.4,13.4,0,0,0-.753-3.6,2.31,2.31,0,0,1-.1-1.132,48.869,48.869,0,0,0,.494-5.251,5.247,5.247,0,0,1,.3-1.945c.048-.111.119-.352-.178-.295s-1.682,3.528-2.374,5.064a.107.107,0,0,1-.2-.074c.327-1.126,1.008-2.99,1.05-3.19.125-.592.238-1.187.335-1.784a8.808,8.808,0,0,1,1.519-2.979,1.1,1.1,0,0,1,.995-.455h.009a1.139,1.139,0,0,1,1,.844,8.622,8.622,0,0,1,.2,1.052c.083.627.1,1.266.225,1.884.258,1.27.183,2.183.48,3.445C301.854,1561.721,302.014,1562.316,301.87,1562.325Z" transform="translate(-264.14 -1490.554)" fill="#e8634a"/>
        <path id="Path_421" data-name="Path 421" d="M554.52,1804.374c.062.281.144.558.193.84.066.376.108.755.16,1.133,0,.019,0,.04.005.06.064.683.116,1.367.2,2.048.056.475.146.947.228,1.418,0,.007.025.185.027.192a1.293,1.293,0,0,1,.144-.007c.376-.027.754-.04,1.13-.068.849-.063,1.7-.013,2.544.006.3.007.6.037.9.038s.627-.019.941-.029c.134,0,.268-.007.4-.008,0,0,4.694.012,4.7-.036a5.047,5.047,0,0,0-.188-.928,10.612,10.612,0,0,1-.182-1.606c-.015-.189-.008-.381-.028-.57s-.065-.394-.1-.59c-.014-.084-.027-.168-.038-.252,0,0-.276-2.76-.27-2.918-.159,0-.319,0-.477,0-.263.013-1.078-.005-1.378.014-.462.029-.922.078-1.385.094-.615.022-1.231.02-1.847.028h-.1c-1.108-.016-2.215-.044-3.322-.044-.641,0-1.282.024-1.923.048a2.3,2.3,0,0,0-.481,0c.01.1.02.2.039.293C554.44,1803.688,554.48,1804.192,554.52,1804.374Zm1.2-.756c.871-.063,1.74-.013,2.61.006.307.007.614.036.92.038s.643-.019.965-.029c.137,0,.275-.007.412-.008l4.117-.046c.031.136.056.594.1.776.062.281.144.558.193.841.066.375.108.755.161,1.132,0,.02,0,.04.005.06.064.682.116,1.367.2,2.048.041.346.1.691.161,1.035-.033,0-.066,0-.1,0-.256.013-1.051-.006-1.344.013-.45.029-.9.078-1.35.095-.6.021-1.2.02-1.8.028-.032,0-.063,0-.095,0-1.08-.016-2.159-.044-3.239-.044-.645,0-1.29.026-1.936.05-.04-.187-.075-.375-.119-.56a10.6,10.6,0,0,1-.182-1.606c-.015-.19-.008-.381-.028-.571s-.065-.393-.1-.59c-.014-.084-.027-.168-.038-.252l-.321-2.369C555.179,1803.65,555.451,1803.637,555.721,1803.618Z" transform="translate(-463.045 -1716.516)" fill="#e8634a"/>
        <path id="Path_422" data-name="Path 422" d="M551.068,1812.115a5.236,5.236,0,0,0,.748.117c-.117-1-.181-1.728-.282-2.729,0-.03-.005-.059-.009-.088-.073-.555-.136-1.112-.223-1.664-.065-.416-.2-1.443-.258-1.78C551,1805.735,550.911,1812.067,551.068,1812.115Z" transform="translate(-460.594 -1718.59)" fill="#e8634a"/>
        <path id="Path_423" data-name="Path 423" d="M320.838,1909.961c-.035-.024-.06-.036-.07-.031Z" transform="translate(-294.155 -1793.755)" fill="#e8634a"/>
        <path id="Path_424" data-name="Path 424" d="M247.037,1873.69l0,.722.967,0c0-.193-.006-.44-.01-.723Z" transform="translate(-240.849 -1767.551)" fill="#e8634a"/>
        <path id="Path_425" data-name="Path 425" d="M227.653,1833.677c1.167-.012,2.335-.009,3.5-.043.161,0,.366-.009.6-.013.012-.184.025-.369.03-.554a30.006,30.006,0,0,0,.009-3.382c-.039-.453-.06-.909-.095-1.364l-6.453.053c-.181,0-.362,0-.543.008v5.255q1.385.019,2.771.038C227.53,1833.676,227.592,1833.678,227.653,1833.677Z" transform="translate(-224.698 -1734.754)" fill="#e8634a"/>
        <path id="Path_426" data-name="Path 426" d="M252.99,1873.579c.019.191.039.381.05.573,0,.05,0,.1.005.15q1.035-.012,2.07-.032c0-.219-.006-.462-.01-.723Q254.048,1873.566,252.99,1873.579Z" transform="translate(-245.153 -1767.451)" fill="#e8634a"/>
        <path id="Path_427" data-name="Path 427" d="M254.6,1833.151a32.756,32.756,0,0,0,.009-3.53c-.038-.46-.059-.923-.092-1.384l-2.149.018c.039.911.084,1.822.084,2.732,0,.854-.016,1.708-.033,2.562.763-.013,1.62-.026,2.164-.041C254.589,1833.389,254.595,1833.27,254.6,1833.151Z" transform="translate(-244.702 -1734.693)" fill="#e8634a"/>
        <path id="Path_428" data-name="Path 428" d="M565.6,1810.6s-.154.231.076.13a1.535,1.535,0,0,0,.944-1.739s-.017-.063.069-.019c.246.115.891.7.287,2.47,0,0-.106.251.078.131a3.191,3.191,0,0,0,1.61-2.747,2.442,2.442,0,0,0-1.884-2.043,1.884,1.884,0,0,0-.5-.068s-.321.013-.09.132a2.706,2.706,0,0,1,1.564,1.844.12.12,0,0,1,0,.037c0,.022-.026.061-.089.022a.278.278,0,0,1-.062-.061,2.858,2.858,0,0,0-2.252-1.187s-.272-.011-.133.1a1.7,1.7,0,0,1,.589.965s.024.091-.077.05c-.266-.123-.613-.436-3.128-.37l-.011.027-.026.074c-.018.053-.035.106-.049.16l-.022.086-.01.048a6.841,6.841,0,0,1,2.611.382A1.042,1.042,0,0,1,565.6,1810.6Z" transform="translate(-468.909 -1719.131)" fill="#e8634a"/>
        <path id="Path_429" data-name="Path 429" d="M267.617,1957.426h-5.909a1.011,1.011,0,0,0-1.008,1.013v.662a1.011,1.011,0,0,0,1.008,1.014h5.909a1.011,1.011,0,0,0,1.008-1.014v-.662A1.011,1.011,0,0,0,267.617,1957.426Z" transform="translate(-250.727 -1828.094)" fill="#e8634a"/>
        <path id="Path_430" data-name="Path 430" d="M451.444,1526.167v-.006l.655.027v-.431l-9.559.022-10.5-.023a2.385,2.385,0,0,1-2.308-2.455v-1.511c0-4.767,5.076-8.631,12.579-8.631h4.5a7.539,7.539,0,0,1,5.285,2.19v-24.716H424.808c-.53.752-4.338,6.155-5.449,7.474-2.4,2.851-4.893,5.636-7.189,8.572a11.827,11.827,0,0,0-1.117,1.638,2.973,2.973,0,0,0-.4,1.528,6.525,6.525,0,0,0,1.2,3.523c1.546,2.389,4.108,4.1,6.28,5.968a16.2,16.2,0,0,1,5.481,7.924c1.86,6.868-1.327,14.1-6.033,19.044-5.043,5.3-11.7,8.523-17.356,13.044-5.026,4.014-9.419,9.22-9.443,15.976-.024,6.946,3.766,13.146,8.148,18.256,4.836,5.638,10.26,10.825,15.618,15.961,5.546,5.315,11.264,10.428,17.073,15.453,2.357,2.039,4.767,4.12,6.989,6.369A23.851,23.851,0,0,0,452.1,1609.88v-83.119h-.057A.6.6,0,0,1,451.444,1526.167Zm-32.006-15.2-.034.012a2.085,2.085,0,0,0-1.358,1.958v1.758h-.879l.017-10.731a2.254,2.254,0,0,1,2.254-2.254Zm22.533,15.242a2.159,2.159,0,0,1-2.075,1.629,2.274,2.274,0,0,1-2.067-1.606C438.1,1526.215,441.775,1526.2,441.971,1526.208Zm-11.8,5.756q.037-.121.068-.244s.4-1.56.6-2.332a.456.456,0,0,1,.538-.331h0c.226,0,.453,0,.678.006.395.016.787.054,1.181.071.563.025,2.276.041,2.971.06.924.026,1.85.024,2.775.034.049,0,.1,0,.146,0,1.664-.019,3.328-.054,4.992-.053.811,0,2.384.06,3.043.086a.266.266,0,0,1,.252.309c-.1.6-.324,1.981-.419,2.766a14.648,14.648,0,0,0-.115,1.6c0,.2,0,.628,0,.881a.171.171,0,0,1-.2.169,21.518,21.518,0,0,0-3.629-.112c-1.634.047-3.27.045-4.9.068-2.74.038-5.478-.05-8.217-.089a.341.341,0,0,1-.328-.42c.1-.4.239-1,.3-1.34.035-.186.042-.377.083-.561S430.114,1532.153,430.17,1531.964Zm17.58,3.653c.5-.025,1.009-.025,1.513-.023a.31.31,0,0,1,.3.357c-.036.233-.078.494-.078.5-.005.133-.114,1.15-.114,1.15-.022.319-.039.638-.066.956a23.851,23.851,0,0,0,.007,2.682c.009.316.045.63.047.946s-.023.661-.035.991c-.005.141-.009.282-.01.423,0,0-.053,3.875-.064,4.635a.134.134,0,0,1-.13.132l-.315.009a.134.134,0,0,1-.138-.133c0-.118,0-.236.007-.353.016-.27.054-.538.071-.808.025-.385.04-1.557.06-2.032.026-.632.024-1.265.034-1.9,0-.033,0-.067,0-.1-.019-1.138-.054-2.276-.053-3.414,0-.673.03-1.346.06-2.019l-.241.008c-.024,0-.344-.007-.4-.016a.8.8,0,0,0-.455-.024.67.67,0,0,1-.081.03c-.025.36-.042.721-.071,1.08a26,26,0,0,0,.007,2.8c.008.329.045.658.047.987,0,.345-.024.69-.035,1.035,0,.147-.009.295-.01.442,0,0-.052,4-.064,4.823a.155.155,0,0,1-.151.153l-.272.008a.155.155,0,0,1-.161-.154c0-.118,0-.235.007-.352.016-.282.054-.562.071-.843.024-.4.04-1.625.06-2.121.027-.66.024-1.321.034-1.981,0-.035,0-.07,0-.1-.02-1.188-.054-2.376-.054-3.563,0-.749.035-1.5.066-2.247-.538-.024-1.077-.041-1.613-.069-1.442-.076-2.881-.016-4.322.008-.508.008-1.015.045-1.524.047-.532,0-1.065-.023-1.6-.035-.227,0-.455-.009-.682-.01l-5.117-.042c-.027.36-.044.722-.075,1.082a23.866,23.866,0,0,0,.007,2.682c.009.316.045.63.047.946s-.023.661-.035.991c0,.141-.009.282-.01.423,0,0-.047,3.469-.062,4.486a.289.289,0,0,1-.281.285h-.006a.289.289,0,0,1-.3-.291c0-.063,0-.126.007-.189.016-.27.054-.538.072-.808.025-.385.04-1.557.06-2.032.026-.632.024-1.265.034-1.9,0-.033,0-.067,0-.1-.02-1.138-.054-2.276-.054-3.414,0-.722.035-1.445.067-2.167l-1.7-.014c-.026.366-.043.733-.073,1.1a26.007,26.007,0,0,0,.007,2.8c.008.329.045.658.047.987,0,.345-.023.69-.035,1.035,0,.147-.009.294-.01.442,0,0-.052,3.989-.064,4.821a.157.157,0,0,1-.153.155l-.266.008a.158.158,0,0,1-.164-.157c0-.117,0-.233.007-.349.016-.282.054-.562.071-.844.024-.4.04-1.625.06-2.121.026-.659.024-1.32.034-1.981,0-.035,0-.07,0-.1-.02-1.188-.054-2.376-.054-3.564,0-.756.035-1.511.067-2.267h0a.71.71,0,0,1-.215-.5l.023-.461a.73.73,0,0,0,0-.088,3.166,3.166,0,0,1,.054-.411c.008-.038.019-.109.031-.2a.377.377,0,0,1,.378-.326c2.724.037,5.446.13,8.171.094,1.611-.021,3.223-.017,4.833-.062C444.365,1535.411,447.69,1535.69,447.751,1535.617Zm-.234-2.879c.089-.9.248-1.795.394-2.69a.081.081,0,0,1,.157-.009c.22.788.521,1.887.521,1.887.022.077.046.154.072.23.06.178.131.352.179.533s.062.358.1.533a8.51,8.51,0,0,0,.4,1.474c.047.109.09.219.132.329-.419,0-1.207.042-1.669.071a.3.3,0,0,1-.316-.3c0-.157-.028-.318-.036-.463A10.5,10.5,0,0,1,447.517,1532.738Zm-21.4,62.692a19.616,19.616,0,0,0-.155-2.155c-.127-1.056-.429-2.908-.563-3.719a.357.357,0,0,1,.339-.415c.885-.036,3-.116,4.09-.116,2.237,0,4.474.046,6.712.072.066,0,.131,0,.2,0,1.244-.014,2.49-.01,3.731-.046.935-.027,3.237-.048,3.995-.081.531-.023,1.057-.075,1.588-.1.3-.012.607-.011.911-.008h.006a.613.613,0,0,1,.723.445c.269,1.039.81,3.135.81,3.135.027.11.058.219.091.328.076.255.17.505.228.765s.065.5.112.754c.086.457.277,1.26.407,1.8a.459.459,0,0,1-.441.565c-3.683.052-7.363.17-11.047.119-2.2-.031-4.4-.028-6.594-.091a28.931,28.931,0,0,0-4.878.151.23.23,0,0,1-.264-.227C426.114,1596.275,426.118,1595.7,426.116,1595.43Zm-2.051-4.563a.912.912,0,0,0,.007.118,5.057,5.057,0,0,1-.8-.038c.006-.028,0-2.345.007-3.47v-1.571c0-7.507,2.134-10.38,4.005-10.38a2.873,2.873,0,0,1,2.377,1.86c.777,2-1.854,5.9-3.971,8.578A7.578,7.578,0,0,0,424.065,1590.867Zm1.294,5.094c-.011.2-.045.412-.048.623a.4.4,0,0,1-.425.4c-.62-.039-1.68-.1-2.243-.1.058-.148.116-.3.178-.442a11.392,11.392,0,0,0,.532-1.982c.054-.236.075-.483.137-.716s.16-.479.241-.717c.034-.1.067-.2.1-.309,0,0,.4-1.477.7-2.537a.108.108,0,0,1,.211.013c.2,1.2.409,2.4.529,3.615A14.093,14.093,0,0,1,425.36,1595.961Zm9.693-19.387c.9-.027,1.8-.062,2.7-.062,1.289,0,2.578.028,3.867.044h.113c.717-.008,1.435-.006,2.15-.028.539-.016.99-.014.991,0,.437-.015.874-.027,1.311-.047.306-.014.609-.046.915-.059.182-.008.365-.006.548,0l.106-.009c.006.031.011.063.014.092l.531,4.1q.023.186.052.373c.044.29.1.579.131.87s.034.56.06.838c.055.593.093,1.188.173,1.778.01,0,.068.442.1.587.069.346.123.7.191,1.042,0,.008.019.155.021.162-.138.063-.292-.026-.435.017l-.005-.031c-.067-.432-.137-.864-.2-1.3l-1.531.015s.025.925.049.967l0,0c-.144,0-.289,0-.436-.007v0a2.807,2.807,0,0,1,.01-.609,1.01,1.01,0,0,0-.017-.211.627.627,0,0,0-.076-.135l-3.056.029q-.24,0-.48.008c-.375.01-.749.03-1.123.029-.357,0-.714-.031-1.071-.038-1.013-.019-2.025-.069-3.038-.006-.347.022-.7.035-1.045.052q.025.152.055.3c.068.345.123.693.19,1.038,0,.008.042.174.044.182-.138.062-.315-.046-.458,0,0-.011,0-.021-.005-.031-.078-.5-.16-1-.23-1.5l-.516-.065a2.764,2.764,0,0,0-.711-.153.62.62,0,0,1-.067.013c-.017.482-.043.964-.066,1.446,0,.01,0,.021,0,.031a3.263,3.263,0,0,1-.435-.11.163.163,0,0,0,0-.022c.03-.345.047-.693.078-1.037a22.186,22.186,0,0,0,.016-2.338c0-.275-.031-.55-.03-.824s.024-.576.037-.864c.005-.123.01-.246.012-.369l.089-4.058c0-.03,0-.061,0-.092l.474-.009v.01Zm2.319-27.771a29.323,29.323,0,0,0-2.966-.1c-.22.01-.591.023-.906.033a.552.552,0,0,1-.571-.554l0-1.66c0-.06.02-.865.033-1a6.3,6.3,0,0,0,.065-.923.159.159,0,0,1,.164-.168c.715.018,1.453-.071,2.156-.07,1.089,0,2.178,0,3.267.019,2.039.026,4.1.031,6.13.215a.161.161,0,0,1,.145.136,17.1,17.1,0,0,1,.071,2.657c0,.363.014.725-.013,1.087-.008.109-.03.236-.038.362a.158.158,0,0,1-.162.146l-4.768-.094c-.156,0-.312-.005-.468,0-.366,0-.732.014-1.1,0C438.068,1548.87,437.72,1548.823,437.372,1548.8Zm.909,7.242c-.485,0-1.4.049-1.928.082a.347.347,0,0,1-.365-.346c0-.181-.032-.367-.041-.536a12.123,12.123,0,0,1,.078-1.842c.1-1.042.287-2.073.455-3.107a.093.093,0,0,1,.181-.011c.254.911.6,2.18.6,2.18.025.089.054.177.083.265.069.205.152.406.207.616s.072.413.118.616a9.829,9.829,0,0,0,.457,1.7C438.181,1555.791,438.231,1555.918,438.281,1556.045Zm8.048-9.812c.014.2.014.693.033.856.012.1.038.194.053.292a.016.016,0,0,1,0,.008h0v.01a.565.565,0,0,1-.1.352l-.021.033a5.269,5.269,0,0,1-.353.481,1.705,1.705,0,0,0-.122.3.273.273,0,0,1-.03.066l0,0a.163.163,0,0,1-.3-.115,2.042,2.042,0,0,0,.031-.246c.014-.421,0-.847,0-1.27,0-.658-.048-1.929-.078-2.46a.608.608,0,0,1,.174-.459c.06-.06.119-.118.173-.174.113-.116.232-.227.348-.339a.163.163,0,0,1,.276.114c0,.091,0,.182,0,.274-.015.478-.1,1.461-.1,1.475C446.321,1545.7,446.31,1545.967,446.328,1546.234Zm-.543-3.092c-.15.144-.3.285-.445.438-.073.08-.244.242-.36.354a.353.353,0,0,1-.276.1c-2.029-.18-4.08-.182-6.113-.213-1-.015-2-.018-3.006-.018-.48,0-.963-.014-1.443,0-.286.01-.574.047-.862.059a.149.149,0,0,1-.142-.209c.112-.251.286-.632.286-.632a.423.423,0,0,1,.381-.247c.531,0,1.718-.01,2.392.011,1.27.04,2.54.115,3.81.175.037,0,.074,0,.112.005.707.013,1.414.038,2.12.034.445,0,2.718-.023,3.475-.031A.1.1,0,0,1,445.785,1543.142Zm-2.712,13.107v11.524l-.042.015a2.6,2.6,0,0,0-1.69,2.436v2.189h-1.094l.021-13.359A2.805,2.805,0,0,1,443.074,1556.249Zm-8.424,12.745c.016.232.016.8.038.988.014.113.044.225.062.337a.015.015,0,0,1,0,.009h0v.011a.651.651,0,0,1-.112.407c-.01.014-.018.028-.024.038a6.1,6.1,0,0,1-.408.556,1.952,1.952,0,0,0-.14.345.316.316,0,0,1-.035.076l0,0a.188.188,0,0,1-.344-.132,2.427,2.427,0,0,0,.035-.285c.016-.487,0-.979,0-1.467,0-.76-.056-2.229-.091-2.842a.7.7,0,0,1,.2-.531c.068-.07.138-.137.2-.2.13-.134.267-.262.4-.391a.189.189,0,0,1,.319.132c0,.106,0,.211,0,.316-.017.552-.118,1.688-.118,1.7C434.642,1568.378,434.629,1568.686,434.65,1568.994Zm-.627-3.572c-.173.167-.351.329-.514.506-.085.092-.283.28-.416.409a.407.407,0,0,1-.318.112c-2.344-.208-4.713-.21-7.062-.245-1.157-.017-2.315-.02-3.472-.02-.555,0-1.112-.017-1.667,0-.33.012-.664.054-1,.069a.172.172,0,0,1-.164-.242c.129-.29.331-.73.331-.73a.489.489,0,0,1,.441-.286c.613,0,1.985-.011,2.763.013,1.468.047,2.934.133,4.4.2.043,0,.086.005.129.006.816.015,1.633.044,2.449.039.514,0,3.14-.026,4.015-.035A.116.116,0,0,1,434.023,1565.422Zm-4.17-37.38c.625,1.61-1.493,4.75-3.2,6.909a6.1,6.1,0,0,0-1.312,3.949.708.708,0,0,0,.006.095,4.117,4.117,0,0,1-.641-.031c0-.023,0-1.889.006-2.8V1534.9c0-6.046,1.719-8.359,3.226-8.359A2.315,2.315,0,0,1,429.853,1528.042Zm1.121-16.38a.242.242,0,0,1-.188.066c-1.388-.123-2.792-.124-4.182-.145-.686-.01-1.371-.012-2.056-.012-.329,0-.659-.01-.987,0-.2.007-.393.032-.59.041a.1.1,0,0,1-.1-.143c.076-.172.2-.432.2-.432a.29.29,0,0,1,.261-.169c.363,0,1.176-.007,1.637.008.869.027,1.738.079,2.606.12l.076,0c.484.009.968.026,1.45.023.3,0,1.86-.016,2.378-.021a.068.068,0,0,1,.048.118c-.1.1-.208.195-.3.3C431.171,1511.473,431.054,1511.585,430.975,1511.661Zm.986.017c-.01.327-.07,1-.07,1.009,0,.182-.006.364.006.547.009.137.009.474.023.585.008.067.026.133.036.2,0,0,0,0,0,.005h0v.007a.385.385,0,0,1-.066.24l-.014.023a3.621,3.621,0,0,1-.242.329,1.155,1.155,0,0,0-.083.2.189.189,0,0,1-.021.045v0a.112.112,0,0,1-.2-.079,1.411,1.411,0,0,0,.021-.168c.009-.288,0-.58,0-.869,0-.45-.033-1.32-.053-1.683a.414.414,0,0,1,.119-.314c.04-.042.082-.081.119-.12.077-.079.158-.155.238-.232a.112.112,0,0,1,.189.078C431.963,1511.553,431.963,1511.616,431.961,1511.678Zm1.608-11.942a.94.94,0,1,1,.936,1.022A.982.982,0,0,1,433.569,1499.736Zm.478,5.829c-.287,0-.826.029-1.142.049a.2.2,0,0,1-.216-.205c0-.107-.019-.217-.024-.317a7.18,7.18,0,0,1,.046-1.091c.061-.617.17-1.228.269-1.84a.055.055,0,0,1,.107-.007c.151.539.357,1.291.357,1.291.015.053.032.1.049.157.041.122.09.241.123.365s.042.244.07.365a5.783,5.783,0,0,0,.271,1.008C433.988,1505.415,434.018,1505.49,434.047,1505.566Zm2.759,3.923a5.465,5.465,0,0,0-1.175,3.535.617.617,0,0,0,.005.085,3.653,3.653,0,0,1-.574-.028c0-.02,0-1.69.005-2.5v-1.133c0-5.413,1.539-7.484,2.888-7.484a2.072,2.072,0,0,1,1.714,1.341C440.228,1504.744,438.332,1507.556,436.806,1509.489Zm5.207,2.249a.616.616,0,0,1-.518-.621c.03-.2.072-.439.329-.414a.577.577,0,0,1,.59.6C442.4,1511.531,442.288,1511.788,442.012,1511.738Zm2.885.527a.615.615,0,0,1-.518-.621c.03-.2.072-.439.329-.414a.577.577,0,0,1,.589.6C445.289,1512.058,445.172,1512.316,444.9,1512.265Zm.484-2.866a.615.615,0,0,1-.518-.621c.03-.2.072-.439.329-.414a.577.577,0,0,1,.59.6C445.773,1509.192,445.656,1509.449,445.382,1509.4Zm3.31-4.811c-.542-.019-.947.063-.981.686-.191-.3-.129-.68-.506-.863a2.291,2.291,0,0,0,.807-.8C447.962,1504.109,448.4,1504.248,448.691,1504.588Zm-.706-3.83a1.026,1.026,0,1,1,.936-1.022A.982.982,0,0,1,447.985,1500.758Zm-.395,7.685a.615.615,0,0,1-.518-.621c.03-.2.072-.439.329-.414a.577.577,0,0,1,.589.6C447.981,1508.236,447.865,1508.494,447.59,1508.443Zm1.044,3.617a.615.615,0,0,1-.518-.621c.03-.2.072-.439.329-.414a.577.577,0,0,1,.589.6C449.025,1511.854,448.909,1512.111,448.634,1512.061Zm1.885.881c-.191-.3-.129-.68-.506-.863a2.292,2.292,0,0,0,.807-.8c-.049.5.394.64.681.98C450.958,1512.236,450.553,1512.319,450.519,1512.942Zm-.078-4.28a.577.577,0,0,1,.589.6c-.009.223-.125.481-.4.43a.614.614,0,0,1-.518-.621C450.143,1508.88,450.185,1508.636,450.441,1508.662Zm-.1-5.863c.03-.2.072-.439.329-.414a.577.577,0,0,1,.59.6c-.009.223-.125.481-.4.43A.614.614,0,0,1,450.345,1502.8Zm.769,3.882a.614.614,0,0,1-.518-.621c.03-.2.072-.44.329-.414a.577.577,0,0,1,.59.6C451.506,1506.474,451.389,1506.732,451.114,1506.681Zm.042-11.593c-.009.223-.125.481-.4.431a.615.615,0,0,1-.518-.621c.03-.2.072-.439.329-.414A.577.577,0,0,1,451.157,1495.088Zm-1.439-2.977c-.049.5.394.64.681.98-.542-.019-.947.063-.982.686-.191-.3-.128-.68-.506-.863A2.29,2.29,0,0,0,449.717,1492.112Zm-18.337-.074h0Zm-2.022,6.54a.259.259,0,0,1,.258-.26h.77a.1.1,0,0,0,.1-.1v-1.243a.1.1,0,0,0-.1-.1h-.282a.1.1,0,0,1-.1-.107c0-.074.01-.148.015-.222a.1.1,0,0,1,.1-.093h.267a.1.1,0,0,0,.1-.1v-.468a.1.1,0,0,0-.1-.1h-.206l-.1-.109.211-3.132a.529.529,0,0,1,.514-.514l.577.007,3.144.039a.1.1,0,0,0,.1-.1v-.135a.1.1,0,0,0-.1-.1H432.2a.1.1,0,0,1-.1-.1v-.14l.6,0h3.886c2.3,0,4.61.019,6.913.073v.069a.1.1,0,0,1-.1.1h-1.611a.1.1,0,0,0-.1.1v.308c0,.005,0,.01,0,.015l1.316.016a4.634,4.634,0,0,1,2.943,1.175l.01.007c3.23,2.555,3.387,2.578,3.826,3.089a4.23,4.23,0,0,1,.6.924.1.1,0,0,0,.089.056h.018c.336,0,.627.347.7.83.046.322.083.575.111.773a.1.1,0,0,0,.031.059.454.454,0,0,1,.119.174.11.11,0,0,1,0,.017c.016.094.153.912.007.912h-1.824v-.018a.1.1,0,0,1-.1-.116,1.878,1.878,0,0,0,.029-.328,1.593,1.593,0,1,0-3.174,0,1.871,1.871,0,0,0,.051.437.061.061,0,0,0,0,.01c.009.025.017.05.024.075a.1.1,0,0,1-.1.128H436.12a.1.1,0,0,1-.1-.116,3.189,3.189,0,0,0,.069-.589,1.591,1.591,0,1,0-3.173.055,1.873,1.873,0,0,0,.029.328.1.1,0,0,1-.1.117h-3.232a.259.259,0,0,1-.258-.26Zm-8.9,6.584c.066-.276.164-.685.207-.917.024-.127.029-.258.057-.384s.077-.26.116-.389q.025-.082.046-.167s.275-1.067.412-1.6a.312.312,0,0,1,.368-.227h0c.155,0,.31,0,.463,0,.27.011.539.037.809.049.385.017,1.557.027,2.033.041.632.018,1.266.017,1.9.023h.1c1.139-.014,2.277-.037,3.416-.037.555,0,1.631.041,2.082.059a.181.181,0,0,1,.172.211c-.068.412-.222,1.355-.286,1.892a9.947,9.947,0,0,0-.079,1.1c0,.137,0,.43,0,.6a.117.117,0,0,1-.135.116,14.715,14.715,0,0,0-2.482-.077c-1.118.032-2.237.031-3.356.046-1.875.026-3.748-.034-5.622-.061A.233.233,0,0,1,420.462,1505.161Zm1.784,4.654c.006.216.03.432.032.647s-.016.452-.024.678c0,.1-.006.193-.007.29,0,0-.032,2.373-.042,3.069a.2.2,0,0,1-.192.2h0a.2.2,0,0,1-.2-.2c0-.043,0-.086,0-.129.011-.185.037-.368.049-.553.017-.263.028-1.065.041-1.39.018-.432.017-.866.023-1.3,0-.023,0-.046,0-.068-.013-.779-.037-1.557-.037-2.336,0-.494.024-.989.045-1.483l-1.166-.01c-.018.25-.029.5-.05.751a17.815,17.815,0,0,0,0,1.915c.006.225.031.45.032.675s-.016.472-.024.708c0,.1-.006.2-.007.3,0,0-.035,2.729-.044,3.3a.107.107,0,0,1-.1.106l-.182.006a.109.109,0,0,1-.112-.108c0-.08,0-.159,0-.239.011-.193.037-.384.049-.577.017-.275.028-1.112.041-1.451.018-.451.017-.9.023-1.355,0-.024,0-.047,0-.072-.014-.812-.037-1.625-.037-2.438,0-.517.024-1.034.046-1.551h0a.484.484,0,0,1-.147-.344l.015-.316a.508.508,0,0,0,0-.061,2.176,2.176,0,0,1,.037-.281c.005-.026.013-.075.021-.136a.258.258,0,0,1,.259-.223c1.863.026,3.726.089,5.59.064,1.1-.015,2.205-.012,3.307-.043,1.069-.03,3.344.161,3.385.111.345-.017.69-.017,1.035-.016a.212.212,0,0,1,.209.244c-.025.159-.054.338-.054.341,0,.091-.078.787-.078.787-.015.218-.026.436-.045.654a16.363,16.363,0,0,0,.005,1.835c.006.216.031.432.032.647s-.016.452-.024.678c0,.1-.006.193-.007.29,0,0-.036,2.651-.044,3.171a.092.092,0,0,1-.089.09l-.216.007a.091.091,0,0,1-.095-.091c0-.081,0-.161,0-.241.011-.185.037-.368.049-.553.017-.263.028-1.065.041-1.39.018-.432.017-.866.023-1.3,0-.023,0-.046,0-.068-.014-.779-.037-1.557-.037-2.336,0-.461.021-.921.041-1.381l-.165.005c-.016,0-.235,0-.273-.011a.54.54,0,0,0-.311-.016.5.5,0,0,1-.056.02c-.017.246-.029.493-.049.739a17.749,17.749,0,0,0,.005,1.915c.006.225.03.45.032.676s-.016.472-.024.708c0,.1-.006.2-.007.3,0,0-.035,2.734-.044,3.3a.106.106,0,0,1-.1.1l-.186.006a.106.106,0,0,1-.11-.106c0-.08,0-.161,0-.241.011-.193.037-.384.049-.577.017-.275.028-1.111.042-1.451.018-.451.016-.9.023-1.355,0-.024,0-.048,0-.071-.013-.813-.037-1.626-.037-2.438,0-.512.024-1.025.045-1.537-.368-.016-.737-.028-1.1-.047-.986-.053-1.971-.011-2.957,0-.348.006-.695.031-1.042.032-.364,0-.729-.016-1.093-.024q-.233-.005-.467-.007l-3.5-.029c-.019.246-.03.494-.052.74A16.349,16.349,0,0,0,422.246,1509.816Zm1.494,5.107c-.15.007-.4.016-.62.023a.378.378,0,0,1-.391-.379l0-1.136c0-.041.014-.592.022-.683a4.239,4.239,0,0,0,.045-.632.109.109,0,0,1,.112-.115c.489.012.994-.049,1.475-.048.745,0,1.49,0,2.235.013,1.4.018,2.8.022,4.193.147a.11.11,0,0,1,.1.093,11.691,11.691,0,0,1,.049,1.818c0,.248.009.5-.009.744-.006.075-.021.162-.026.248a.108.108,0,0,1-.111.1l-3.262-.065q-.16,0-.32,0c-.25,0-.5.009-.751,0s-.476-.041-.714-.055A19.927,19.927,0,0,0,423.74,1514.923Zm-8.4,40.44c.112-.467.276-1.156.35-1.549.04-.214.049-.435.1-.648s.13-.438.2-.657c.028-.094.054-.187.078-.282,0,0,.465-1.8.7-2.695a.527.527,0,0,1,.621-.382h.005c.261,0,.523,0,.783.007.456.018.909.062,1.365.082.65.028,2.629.047,3.432.07,1.067.03,2.137.028,3.206.039.057,0,.113,0,.169,0,1.922-.023,3.845-.062,5.767-.062.937,0,2.755.069,3.515.1a.307.307,0,0,1,.291.357c-.116.7-.375,2.289-.484,3.2a16.825,16.825,0,0,0-.133,1.852c0,.232,0,.725,0,1.017a.2.2,0,0,1-.227.2,24.831,24.831,0,0,0-4.192-.13c-1.888.054-3.778.052-5.666.078-3.165.044-6.328-.058-9.493-.1A.394.394,0,0,1,415.342,1555.363Zm-15.361,11.85c.83-.033,2.814-.109,3.837-.109,2.1,0,4.2.043,6.3.068.061,0,.123,0,.184,0,1.167-.012,2.335-.01,3.5-.043.335-.01.857-.019,1.413-.028.008-.481.01-.962.017-1.444,0-.04,0-.08,0-.12-.023-1.372-.062-2.744-.062-4.117,0-.873.041-1.746.077-2.619a.821.821,0,0,1-.248-.581l.026-.533a.822.822,0,0,0,0-.1,3.658,3.658,0,0,1,.062-.475c.009-.044.022-.126.036-.231a.435.435,0,0,1,.437-.376c3.147.043,6.292.149,9.439.108,1.861-.025,3.723-.02,5.583-.072,1.8-.051,5.646.272,5.717.187.583-.029,1.165-.029,1.748-.026a.357.357,0,0,1,.352.412c-.042.269-.09.57-.091.575-.006.153-.131,1.328-.131,1.328-.025.368-.044.737-.076,1.1a27.582,27.582,0,0,0,.009,3.1c.01.365.052.728.054,1.093,0,.382-.027.764-.041,1.145-.006.163-.01.326-.012.489,0,0-.061,4.476-.074,5.354a.155.155,0,0,1-.15.152l-.364.011a.155.155,0,0,1-.16-.154c0-.136,0-.272.008-.408.018-.312.062-.622.082-.933.029-.445.047-1.8.07-2.348.031-.73.028-1.462.039-2.193,0-.038,0-.077,0-.115-.022-1.315-.062-2.63-.062-3.945,0-.777.035-1.555.069-2.332l-.279.009c-.027,0-.4-.007-.461-.018a.919.919,0,0,0-.525-.028.739.739,0,0,1-.094.034c-.029.416-.048.833-.083,1.248a29.991,29.991,0,0,0,.009,3.234c.01.381.052.76.053,1.14,0,.4-.027.8-.041,1.2q-.009.255-.012.51s-.06,4.616-.074,5.571a.18.18,0,0,1-.175.177l-.314.01a.18.18,0,0,1-.186-.178c0-.136,0-.272.008-.407.018-.326.063-.649.082-.974.028-.464.047-1.877.07-2.451.03-.762.028-1.525.039-2.288,0-.04,0-.08,0-.121-.023-1.372-.062-2.744-.062-4.116,0-.865.04-1.731.076-2.6-.621-.028-1.244-.047-1.863-.08-1.665-.089-3.329-.019-4.992.009-.587.01-1.173.052-1.76.053-.615,0-1.23-.027-1.845-.041-.263-.006-.526-.01-.788-.012l-5.912-.049c-.032.416-.051.834-.087,1.25a27.531,27.531,0,0,0,.009,3.1c.01.365.052.728.053,1.093,0,.382-.027.764-.041,1.145-.006.163-.01.326-.012.489,0,0-.006.435-.014,1.058.231-.016.461-.032.693-.041.106,0,.212-.006.318-.007a.182.182,0,0,1,.127-.048c.826.02,1.678-.082,2.491-.082,1.258,0,2.516.005,3.774.021,2.356.031,4.732.037,7.081.249a.186.186,0,0,1,.167.157,19.779,19.779,0,0,1,.082,3.07c-.006.419.015.838-.015,1.256-.009.126-.035.273-.044.418a.183.183,0,0,1-.187.169l-5.508-.109c-.18,0-.361-.006-.541-.006-.423,0-.846.016-1.268,0-.4-.014-.8-.069-1.207-.092-.867-.048-1.732-.121-2.6-.13.009.072.019.144.033.216.08.428.26,1.181.382,1.69a.43.43,0,0,1-.413.53c-3.454.048-6.906.16-10.361.112-2.062-.029-4.124-.026-6.185-.085a27.131,27.131,0,0,0-4.576.141.215.215,0,0,1-.248-.213c0-.318.005-.857,0-1.11a18.422,18.422,0,0,0-.145-2.021c-.119-.99-.4-2.728-.528-3.488A.335.335,0,0,1,399.981,1567.213Zm-2.735,6.855a10.717,10.717,0,0,0,.5-1.859c.05-.222.07-.453.128-.672s.15-.448.226-.673q.049-.144.091-.289s.379-1.386.657-2.38a.1.1,0,0,1,.2.012c.183,1.128.384,2.254.5,3.391a13.223,13.223,0,0,1,.085,2.012c-.01.184-.042.386-.045.584a.378.378,0,0,1-.4.378c-.582-.037-1.576-.093-2.1-.09C397.134,1574.344,397.188,1574.205,397.247,1574.069Zm4.8,15.519c0,.532-.012,1.07.006,1.6a2.625,2.625,0,0,0,.039.31.205.205,0,0,1-.376.144l0,0a.355.355,0,0,1-.039-.083,2.166,2.166,0,0,0-.153-.377,6.623,6.623,0,0,1-.445-.607l-.026-.042a.712.712,0,0,1-.122-.444v-.013h0a.016.016,0,0,1,0-.01c.019-.123.052-.245.067-.368.024-.2.025-.826.042-1.079.023-.336.009-.671.011-1.007,0-.018-.11-1.257-.129-1.86,0-.115,0-.23,0-.345a.206.206,0,0,1,.348-.144c.147.141.3.281.439.427.068.07.144.143.219.22a.765.765,0,0,1,.22.579C402.112,1587.156,402.046,1588.758,402.051,1589.588Zm.237-4.317c-.178-.193-.372-.37-.561-.553a.126.126,0,0,1,.089-.217c.955.01,3.822.035,4.382.039.89,0,1.782-.026,2.673-.042.047,0,.094,0,.141-.007,1.6-.075,3.2-.17,4.8-.221.85-.027,2.347-.02,3.016-.014a.533.533,0,0,1,.481.312s.221.48.361.8a.188.188,0,0,1-.18.264c-.363-.016-.727-.062-1.087-.075-.606-.021-1.214,0-1.82,0-1.263,0-2.527,0-3.79.022-2.563.039-5.15.041-7.708.268a.44.44,0,0,1-.347-.122C402.6,1585.577,402.38,1585.371,402.288,1585.271Zm10.049,6.586c-.44.024-.877.084-1.317.1-.461.017-.923,0-1.384,0-.2,0-.394,0-.591.006l-6.012.119a.2.2,0,0,1-.2-.184c-.01-.158-.038-.318-.048-.456-.033-.457-.01-.914-.016-1.371a21.577,21.577,0,0,1,.089-3.351.2.2,0,0,1,.183-.171c2.564-.232,5.158-.238,7.729-.271,1.373-.018,2.746-.022,4.119-.023.887,0,1.818.111,2.719.089a.2.2,0,0,1,.207.212,7.885,7.885,0,0,0,.083,1.165c.016.168.041,1.184.042,1.258l.006,2.094a.7.7,0,0,1-.72.7c-.4-.013-.865-.029-1.143-.042A36.763,36.763,0,0,0,412.336,1591.857Zm8.741,22.81a.9.9,0,0,0,.007-.118,7.579,7.579,0,0,0-1.629-4.9c-2.117-2.681-4.747-6.58-3.97-8.578a2.873,2.873,0,0,1,2.377-1.86c1.871,0,4.005,2.872,4.005,10.38v1.571c0,1.125,0,3.442.007,3.47A5.03,5.03,0,0,1,421.077,1614.667Zm1.234-34.314c0,1.5-.043,3-.068,4.493,0,.044,0,.088,0,.132.012.833.01,1.667.043,2.5.025.626.045,2.167.076,2.674.022.355.07.708.09,1.063.008.146.01.293.009.44a.2.2,0,0,1-.207.2l-.336-.011a.2.2,0,0,1-.193-.2c-.015-1.048-.08-6.079-.08-6.079,0-.186-.006-.372-.013-.557-.015-.435-.047-.87-.045-1.3,0-.415.048-.829.059-1.245a32.831,32.831,0,0,0,.009-3.53c-.038-.46-.059-.923-.092-1.384l-2.148.018c.039.91.084,1.821.084,2.732,0,1.435-.043,2.87-.068,4.3,0,.042,0,.084,0,.126.012.8.01,1.6.043,2.394.025.6.045,2.076.076,2.562.022.341.07.678.09,1.019,0,.08.007.159.008.239a.364.364,0,0,1-.377.367h-.007a.365.365,0,0,1-.354-.359c-.019-1.282-.078-5.657-.078-5.657q0-.267-.013-.534c-.015-.417-.047-.833-.045-1.25,0-.4.048-.795.059-1.193a30.143,30.143,0,0,0,.009-3.382c-.039-.453-.06-.91-.095-1.364l-6.453.054c-.287,0-.574.006-.86.012-.671.015-1.343.047-2.014.045-.641,0-1.28-.048-1.921-.058-1.816-.03-3.631-.106-5.449-.01-.676.036-1.356.057-2.034.087.039.944.083,1.889.083,2.833,0,1.5-.043,3-.068,4.493,0,.044,0,.088,0,.132.012.833.01,1.667.043,2.5.025.626.045,2.168.076,2.674.022.355.07.708.09,1.064.008.147.01.3.009.444a.2.2,0,0,1-.2.195l-.343-.011a.2.2,0,0,1-.191-.193c-.015-1.043-.081-6.082-.081-6.082q0-.279-.013-.557c-.015-.435-.047-.87-.045-1.305,0-.415.048-.83.059-1.245a32.783,32.783,0,0,0,.009-3.53c-.037-.453-.058-.908-.09-1.362a.894.894,0,0,1-.1-.037,1,1,0,0,0-.573.03c-.07.012-.473.021-.5.02l-.3-.01c.037.849.076,1.7.076,2.546,0,1.435-.043,2.87-.068,4.3,0,.042,0,.084,0,.126.012.8.01,1.6.043,2.394.025.6.045,2.076.076,2.562.022.341.07.678.09,1.019.009.148.01.3.009.445a.169.169,0,0,1-.175.167l-.4-.012a.169.169,0,0,1-.164-.166c-.015-.958-.081-5.844-.081-5.844q0-.267-.013-.534c-.015-.417-.047-.833-.045-1.25,0-.4.048-.795.059-1.193a30.129,30.129,0,0,0,.009-3.382c-.034-.4-.055-.8-.083-1.205,0,0-.137-1.282-.143-1.45,0-.005-.053-.335-.1-.628a.391.391,0,0,1,.384-.45c.636,0,1.272,0,1.908.029.076.092,4.269-.26,6.24-.2,2.03.057,4.063.052,6.094.078,3.435.046,6.868-.07,10.3-.118a.475.475,0,0,1,.477.411c.015.114.029.2.039.252a4,4,0,0,1,.067.519,1,1,0,0,0,0,.112l.029.581a.894.894,0,0,1-.27.635h0C422.267,1578.447,422.311,1579.4,422.311,1580.353ZM427.943,1613c0,.568-.012,1.14.006,1.707a2.746,2.746,0,0,0,.042.331.219.219,0,0,1-.4.154l0-.005a.371.371,0,0,1-.041-.089,2.286,2.286,0,0,0-.163-.4,7.126,7.126,0,0,1-.474-.647c-.007-.012-.017-.028-.028-.045a.759.759,0,0,1-.13-.473.117.117,0,0,1,0-.013h0a.021.021,0,0,1,0-.01c.02-.131.056-.262.071-.392.026-.219.026-.881.045-1.15.024-.358.009-.716.011-1.074,0-.019-.117-1.34-.138-1.983,0-.123,0-.245,0-.368a.22.22,0,0,1,.371-.153c.157.151.316.3.468.455.073.075.153.153.233.234a.818.818,0,0,1,.234.617C428.008,1610.4,427.938,1612.111,427.943,1613Zm.253-4.6c-.19-.206-.4-.395-.6-.589a.135.135,0,0,1,.095-.232c1.019.011,4.075.038,4.672.041.949.005,1.9-.028,2.85-.045.05,0,.1-.005.15-.007,1.707-.081,3.414-.181,5.122-.235.906-.029,2.5-.021,3.216-.015a.568.568,0,0,1,.513.332s.235.512.385.85a.2.2,0,0,1-.191.281c-.387-.017-.775-.066-1.159-.08-.646-.023-1.294,0-1.94,0-1.347,0-2.694,0-4.041.023-2.733.042-5.491.044-8.218.286a.473.473,0,0,1-.37-.13C428.524,1608.719,428.294,1608.5,428.2,1608.393Zm15.919,6.929c-.424-.014-.922-.031-1.219-.045a39.259,39.259,0,0,0-3.987.137c-.469.026-.936.09-1.4.107-.491.018-.984,0-1.476,0q-.315,0-.63.006l-6.41.127a.213.213,0,0,1-.217-.2c-.011-.168-.04-.339-.051-.486-.036-.487-.011-.974-.017-1.462a22.944,22.944,0,0,1,.1-3.572.217.217,0,0,1,.194-.183c2.734-.247,5.5-.254,8.24-.289,1.464-.019,2.928-.024,4.392-.025.945,0,1.938.118,2.9.094a.215.215,0,0,1,.221.226,8.457,8.457,0,0,0,.088,1.241c.017.18.044,1.262.044,1.342l.006,2.232A.743.743,0,0,1,444.115,1615.322Zm5.429-12.172c0,1.6-.046,3.194-.072,4.791,0,.047,0,.094,0,.14.013.888.01,1.777.046,2.664.027.667.048,2.311.081,2.851.023.379.075.755.1,1.134.009.156.01.313.01.469a.213.213,0,0,1-.221.211l-.358-.011a.212.212,0,0,1-.206-.208c-.016-1.118-.086-6.481-.086-6.481,0-.2-.006-.4-.013-.594-.016-.464-.05-.928-.048-1.392,0-.442.051-.884.063-1.327a34.933,34.933,0,0,0,.01-3.764c-.04-.491-.063-.984-.1-1.476l-2.29.019c.042.971.089,1.942.089,2.913,0,1.53-.046,3.06-.072,4.59,0,.045,0,.09,0,.134.013.851.01,1.7.046,2.552.027.639.048,2.214.081,2.731.023.363.075.724.1,1.087,0,.085.008.17.009.255a.388.388,0,0,1-.4.391h-.008a.389.389,0,0,1-.378-.383c-.02-1.368-.083-6.031-.083-6.031,0-.19-.006-.38-.013-.569-.016-.444-.05-.889-.047-1.333,0-.424.051-.847.062-1.271a32.022,32.022,0,0,0,.01-3.606c-.042-.484-.064-.969-.1-1.454l-6.88.057c-.306,0-.611.007-.917.013-.716.017-1.432.05-2.148.048-.683,0-1.365-.051-2.048-.062-1.936-.032-3.872-.114-5.81-.01-.721.039-1.446.061-2.169.093.042,1.006.088,2.013.089,3.02,0,1.6-.046,3.194-.072,4.791,0,.047,0,.094,0,.14.013.888.01,1.777.046,2.663.027.667.048,2.311.081,2.851.023.379.075.755.1,1.134.009.157.01.315.01.473a.209.209,0,0,1-.217.208l-.365-.012a.208.208,0,0,1-.2-.2c-.016-1.112-.086-6.484-.086-6.484,0-.2-.006-.4-.013-.594-.016-.464-.05-.927-.048-1.391,0-.442.051-.884.063-1.327a34.948,34.948,0,0,0,.01-3.764c-.04-.483-.062-.968-.1-1.452a1.05,1.05,0,0,1-.109-.04,1.067,1.067,0,0,0-.611.032c-.074.013-.5.022-.536.022l-.324-.011c.04.9.081,1.809.081,2.714,0,1.53-.046,3.06-.072,4.59,0,.045,0,.09,0,.134.013.851.01,1.7.046,2.552.027.639.048,2.214.081,2.731.023.363.075.724.1,1.087.009.158.011.316.009.474a.18.18,0,0,1-.186.179l-.423-.013a.18.18,0,0,1-.175-.177c-.016-1.022-.086-6.231-.086-6.231,0-.19-.006-.38-.013-.569-.016-.444-.05-.889-.048-1.333,0-.424.051-.847.063-1.271a32.08,32.08,0,0,0,.01-3.606c-.036-.427-.058-.857-.088-1.285,0,0-.146-1.367-.153-1.545,0-.005-.057-.357-.106-.669a.417.417,0,0,1,.41-.48c.678,0,1.356,0,2.034.031.082.1,4.552-.277,6.652-.218,2.164.061,4.332.055,6.5.083,3.662.048,7.323-.075,10.984-.125a.506.506,0,0,1,.508.438c.016.121.031.217.042.268a4.268,4.268,0,0,1,.072.553.949.949,0,0,0,0,.119l.03.62a.954.954,0,0,1-.288.677C449.5,1601.118,449.543,1602.134,449.544,1603.15Zm.606-76.934a.5.5,0,0,1-.5.5h-1.728a.5.5,0,0,1-.5-.5v-.005h2.727Z" transform="translate(-344.777 -1490.612)" fill="#e8634a"/>
        <path id="Path_431" data-name="Path 431" d="M261.806,1646.581a1.811,1.811,0,1,0,1.811,1.811A1.813,1.813,0,0,0,261.806,1646.581Zm0,3.142a1.331,1.331,0,1,1,1.331-1.331A1.333,1.333,0,0,1,261.806,1649.723Z" transform="translate(-250.217 -1603.359)" fill="#e8634a"/>
        <path id="Path_432" data-name="Path 432" d="M318.891,1513.49c-.009-.244-.026-.489-.025-.734s.027-.466.033-.7a18.359,18.359,0,0,0,.005-1.984c-.021-.254-.033-.51-.051-.765a.558.558,0,0,1-.058-.021.561.561,0,0,0-.322.017c-.039.007-.266.011-.283.011l-.171-.006c.021.477.042.954.042,1.431,0,.806-.024,1.613-.038,2.419,0,.024,0,.047,0,.071.007.448.005.9.024,1.345,0,.115.009.288.014.476l.853.011c-.009-.684-.016-1.259-.016-1.259C318.9,1513.7,318.895,1513.594,318.891,1513.49Z" transform="translate(-292.168 -1504.083)" fill="#e8634a"/>
        <path id="Path_433" data-name="Path 433" d="M302.769,1646.252h6.914a.559.559,0,0,0,.431-.914,12.786,12.786,0,0,0-7.236-3.885.563.563,0,0,0-.667.547v3.694A.558.558,0,0,0,302.769,1646.252Z" transform="translate(-280.739 -1599.643)" fill="#e8634a"/>
        <path id="Path_434" data-name="Path 434" d="M283.621,1643.469h3.5a.326.326,0,0,0,0-.648h-3.5a.326.326,0,0,0,0,.648Z" transform="translate(-267.089 -1600.64)" fill="#e8634a"/>
        <path id="Path_435" data-name="Path 435" d="M283.621,1647.737h3.5a.326.326,0,0,0,0-.648h-3.5a.326.326,0,0,0,0,.648Z" transform="translate(-267.089 -1603.726)" fill="#e8634a"/>
        <path id="Path_436" data-name="Path 436" d="M283.621,1652.006h3.5a.326.326,0,0,0,0-.648h-3.5a.326.326,0,0,0,0,.648Z" transform="translate(-267.089 -1606.812)" fill="#e8634a"/>
        <path id="Path_437" data-name="Path 437" d="M259.874,1639.8h-.886a7.031,7.031,0,0,0-3.337.839,1.465,1.465,0,0,0-.78,1.293v7.945a1.46,1.46,0,0,0,1.458,1.458h3.544a1.46,1.46,0,0,0,1.458-1.458v-8.619A1.46,1.46,0,0,0,259.874,1639.8Zm1.1,10a1.13,1.13,0,0,1-1.129,1.129h-3.478a1.13,1.13,0,0,1-1.129-1.129V1642a1.136,1.136,0,0,1,.605-1,6.6,6.6,0,0,1,3.131-.787h.87a1.13,1.13,0,0,1,1.129,1.129Z" transform="translate(-246.513 -1598.458)" fill="#e8634a"/>
        <path id="Path_438" data-name="Path 438" d="M361.613,1982.454a.272.272,0,0,0-.26.284v2.315a.261.261,0,1,0,.52,0v-2.315A.272.272,0,0,0,361.613,1982.454Z" transform="translate(-323.497 -1846.189)" fill="#e8634a"/>
        <path id="Path_439" data-name="Path 439" d="M302.6,1947.11v-.622a.2.2,0,0,0-.2-.2h-12.9a.2.2,0,0,0-.2.2v.282a.2.2,0,0,0,.2.2l13.1.163C302.6,1947.126,302.6,1947.118,302.6,1947.11Z" transform="translate(-271.41 -1820.041)" fill="#e8634a"/>
        <path id="Path_440" data-name="Path 440" d="M311.455,1955.59H298.487a1.112,1.112,0,0,0-1.109,1.115v5.413a.911.911,0,0,0,.909.914h13.368a.911.911,0,0,0,.909-.914V1956.7A1.112,1.112,0,0,0,311.455,1955.59Z" transform="translate(-277.244 -1826.767)" fill="#e8634a"/>
        <path id="Path_441" data-name="Path 441" d="M287.407,1655.951a.309.309,0,0,0-.29-.324h-3.5a.326.326,0,0,0,0,.648h3.5A.309.309,0,0,0,287.407,1655.951Z" transform="translate(-267.089 -1609.899)" fill="#e8634a"/>
        <path id="Path_442" data-name="Path 442" d="M285.952,1672.271l.118-.263a2.7,2.7,0,0,0,.237-1.106v-.158a.828.828,0,0,1,.828-.828h2.833a.828.828,0,0,1,.828.815l0,.194a2.7,2.7,0,0,0,.236,1.062,1.274,1.274,0,0,0,1.162.752h5.97a1.9,1.9,0,0,0,1.809-1.984v-1.787a6.432,6.432,0,0,0-.068-.948h-11.8a3.672,3.672,0,0,0-3.673,3.673v.254a.793.793,0,0,0,1.516.325Z" transform="translate(-267.888 -1618.859)" fill="#e8634a"/>
        <path id="Path_443" data-name="Path 443" d="M366.777,1961.479l-7.111-5.457a6.289,6.289,0,0,0-.986-.224.309.309,0,0,0-.347.325l.044,5.626a.313.313,0,0,0,.3.323h7.929A.332.332,0,0,0,366.777,1961.479Z" transform="translate(-321.315 -1826.914)" fill="#e8634a"/>
        <path id="Path_444" data-name="Path 444" d="M541.6,1582.586h5.838a.472.472,0,0,0,.471-.471V1579a.475.475,0,0,0-.563-.462,10.8,10.8,0,0,0-6.11,3.28.471.471,0,0,0,.364.772Z" transform="translate(-453.473 -1554.155)" fill="#e8634a"/>
        <path id="Path_445" data-name="Path 445" d="M572.327,1590.5h-2.952a.275.275,0,0,0,0,.547h2.952a.275.275,0,0,0,0-.547Z" transform="translate(-473.717 -1562.815)" fill="#e8634a"/>
        <path id="Path_446" data-name="Path 446" d="M584.3,1502.467h3.932a.165.165,0,0,0,.086-.294l-3.527-2.706a3.1,3.1,0,0,0-.489-.111.153.153,0,0,0-.172.161l.022,2.79A.155.155,0,0,0,584.3,1502.467Z" transform="translate(-484.562 -1496.915)" fill="#e8634a"/>
        <path id="Path_447" data-name="Path 447" d="M543.276,1600.967h-9.963a5.44,5.44,0,0,0-.057.8v1.509a1.608,1.608,0,0,0,1.527,1.676h5.041a1.076,1.076,0,0,0,.982-.635,2.279,2.279,0,0,0,.2-.9l0-.164a.7.7,0,0,1,.7-.688H544.1a.7.7,0,0,1,.7.7v.133a2.281,2.281,0,0,0,.2.934l.1.222a.669.669,0,0,0,1.28-.274v-.215A3.1,3.1,0,0,0,543.276,1600.967Z" transform="translate(-447.78 -1570.381)" fill="#e8634a"/>
        <path id="Path_448" data-name="Path 448" d="M553.9,1499.8v2.685a.452.452,0,0,0,.451.453h6.63a.452.452,0,0,0,.451-.453V1499.8a.552.552,0,0,0-.55-.553h-6.432A.551.551,0,0,0,553.9,1499.8Z" transform="translate(-462.703 -1496.842)" fill="#e8634a"/>
        <path id="Path_449" data-name="Path 449" d="M536.2,1501.5h2.931a.5.5,0,0,0,.5-.5v-.328a.5.5,0,0,0-.5-.5H536.2a.5.5,0,0,0-.5.5v.328A.5.5,0,0,0,536.2,1501.5Z" transform="translate(-449.55 -1497.501)" fill="#e8634a"/>
        <path id="Path_450" data-name="Path 450" d="M585.757,1512.577a.135.135,0,0,0-.129.141v1.149a.129.129,0,1,0,.258,0v-1.149A.135.135,0,0,0,585.757,1512.577Z" transform="translate(-485.644 -1506.476)" fill="#e8634a"/>
        <path id="Path_451" data-name="Path 451" d="M587.124,1577.141a1.233,1.233,0,0,0-1.231,1.231v7.278a1.233,1.233,0,0,0,1.231,1.231h2.993a1.233,1.233,0,0,0,1.231-1.231v-6.709a1.237,1.237,0,0,0-.658-1.092,5.94,5.94,0,0,0-2.817-.708Zm3.407,1.012a.96.96,0,0,1,.511.847v6.582a.954.954,0,0,1-.953.953h-2.936a.954.954,0,0,1-.953-.953v-7.14a.954.954,0,0,1,.953-.953h.734A5.574,5.574,0,0,1,590.531,1578.152Z" transform="translate(-485.836 -1553.154)" fill="#e8634a"/>
        <path id="Path_452" data-name="Path 452" d="M591.748,1585.923a1.529,1.529,0,1,0-1.529-1.529A1.531,1.531,0,0,0,591.748,1585.923Zm0-2.653a1.124,1.124,0,1,1-1.124,1.124A1.125,1.125,0,0,1,591.748,1583.27Z" transform="translate(-488.964 -1557.293)" fill="#e8634a"/>
        <path id="Path_453" data-name="Path 453" d="M572.327,1579.69h-2.952a.275.275,0,0,0,0,.547h2.952a.275.275,0,0,0,0-.547Z" transform="translate(-473.717 -1554.997)" fill="#e8634a"/>
        <path id="Path_454" data-name="Path 454" d="M572.327,1586.9h-2.952a.275.275,0,0,0,0,.547h2.952a.275.275,0,0,0,0-.547Z" transform="translate(-473.717 -1560.209)" fill="#e8634a"/>
        <path id="Path_455" data-name="Path 455" d="M572.327,1583.294h-2.952a.275.275,0,0,0,0,.547h2.952a.275.275,0,0,0,0-.547Z" transform="translate(-473.717 -1557.603)" fill="#e8634a"/>
        <path id="Path_471" data-name="Path 471" d="M547.274,1921.1v24.054l-24.845-.218s3.415-4.667,5.875-1.611c.133.165,1.635,1.813,1.913,1.813,1.712,0,4.263.067,5.606.067.124,0-2.221-2.758-2.115-2.82a20.867,20.867,0,0,0,8.074-9.266c4.583-9.819,4.028-6.345,4.028-6.345Z" transform="translate(-439.952 -1801.831)" fill="#e8634a"/>
        <path id="Path_667" data-name="Path 667" d="M552.863,1493.758h0l.9,0h-.9Z" transform="translate(-461.956 -1492.87)" fill="#e8634a"/>
      </g>
    </g>
  </g>
</svg>
