<?xml version="1.0" encoding="UTF-8"?><svg id="Layer_1" xmlns="http://www.w3.org/2000/svg" viewBox="0 0 606.37 79.2"><g id="Group_397"><path id="Path_864" d="M137.71,30.14c.4-.34,.78-.71,1.12-1.1,2.11-2.19,2.42-5.55,.74-8.08-2.15-3.43-5.19-6.22-8.78-8.08-3.78-2-7.72-2.65-11.85-.72-2.49,1.16-5.03,1.39-7.47-.45-1.29-.97-2.7-.65-3.98,.36-1.38,1.08-1.36,2.56-1.41,4.06-.09,2.99,.48,3.84,3.4,5.09,.31,.16,.6,.36,.87,.59,1.75,1.51,3.59,2.92,5.5,4.22,4.14,2.49,9.04,3.4,13.79,2.56,2.03-.32,3.88-.55,5.25,1.51,.61,.91,1.88,.83,2.82,.06Zm-14.73-6.1c-1.27,.03-2.36-.88-2.58-2.13,0-.99,1.18-1.89,2.46-1.87,1.57,.03,2.82,.93,2.79,2.01s-1.26,1.99-2.67,1.98h0Zm11.22,3.06c.09,.17,.18,.34,.27,.51-.17-.16-.35-.33-.52-.49-.43-.02-.83-.2-1.12-.51-4.45-4.44-9.46-9.37-16.25-7.21-2.15,.69-3.07-2.7-.93-3.38,8.09-2.57,14.29,2.74,19.66,8.11,.67,.71,.63,1.83-.08,2.5-.28,.26-.64,.43-1.03,.47h0Z" style="fill:#efd7b6;"/><path id="Path_870" d="M268.46,36.2c.37,.37,.77,.71,1.19,1.02,2.36,1.91,5.74,1.93,8.12,.03,3.23-2.44,5.74-5.71,7.28-9.45,1.66-3.94,1.96-7.92-.31-11.86-1.37-2.38-1.82-4.89-.2-7.48,.85-1.36,.41-2.75-.7-3.94-1.2-1.28-2.67-1.13-4.16-1.06-2.99,.17-3.78,.81-4.78,3.83-.13,.33-.3,.63-.51,.92-1.35,1.88-2.59,3.83-3.72,5.84-2.12,4.34-2.6,9.3-1.35,13.96,.49,1.99,.89,3.82-1.04,5.36-.85,.68-.66,1.95,.19,2.81Zm4.79-15.2c-.14-1.26,.67-2.43,1.89-2.75,.99-.09,1.99,1.01,2.07,2.29,.11,1.57-.68,2.89-1.76,2.96s-2.09-1.08-2.21-2.49h0Zm-2.07,11.44c-.16,.11-.32,.21-.48,.31,.15-.19,.3-.37,.45-.56-.02-.43,.13-.84,.41-1.16,4.04-4.81,8.51-10.24,5.77-16.82-.87-2.09,2.42-3.29,3.28-1.22,3.26,7.83-1.49,14.47-6.37,20.29-.65,.73-1.77,.79-2.5,.14-.29-.26-.48-.6-.56-.98h0Z" style="fill:#efd7b6;"/><path id="Path_865" d="M153.14,62.46c1.81,.78,3.22-.16,4.68-.99,2.1-1.1,3.41-3.29,3.37-5.66,.02-2.4-1.85-3.6-3.78-4.56-2.1-1.05-3.77-.35-4.29,1.91-.41,1.79-.71,5.21-.98,7.51-.1,.75,.3,1.48,.99,1.79Z" style="fill:#efd7b6;"/><path id="Path_873" d="M44.14,16.39c1.81,.78,3.22-.16,4.68-.99,2.1-1.1,3.41-3.29,3.37-5.66,.02-2.4-1.85-3.6-3.78-4.56-2.1-1.05-3.77-.35-4.29,1.91-.41,1.79-.71,5.21-.98,7.51-.1,.75,.3,1.48,.99,1.79Z" style="fill:#efd7b6;"/><path id="Path_871" d="M111.75,69.73c-1.17,1.59-.57,3.17-.09,4.79,.6,2.3,2.44,4.06,4.76,4.56,2.33,.56,3.92-.99,5.3-2.66,1.49-1.81,1.19-3.59-.9-4.61-1.65-.8-4.91-1.86-7.09-2.64-.71-.26-1.51-.04-1.97,.56Z" style="fill:#efd7b6;"/><path id="Path_874" d="M11.61,73.62c1.18,1.59,2.87,1.47,4.55,1.49,2.37,.1,4.59-1.14,5.75-3.21,1.22-2.07,.2-4.04-.99-5.84-1.3-1.96-3.09-2.18-4.67-.49-1.25,1.34-3.22,4.16-4.6,6.01-.46,.6-.48,1.43-.04,2.05Z" style="fill:#efd7b6;"/><path id="Path_866" d="M211.59,59.34c-.69-2.1-2.22-2.68-4.85-2.05-3.45,1-7.08,1.23-10.64,.68-5.13-.98-8.31,1.78-8.33,7.48,.7,4.2,2.63,8.09,5.55,11.19,2.62,2.92,8.34,3.93,11.7-.3,3.22-4.1,5.48-8.87,6.61-13.96,.25-1,.23-2.05-.05-3.05Zm-10.82,12.41c-1.47-.01-2.91-1.19-2.91-2.4,0-1.12,1.33-2.14,2.77-2.11,1.77,.03,3.19,1.05,3.15,2.27s-1.42,2.25-3.02,2.24h0Zm7.68-9.32c-2.41,1.71-5.14,2.92-8.03,3.56-2.51,.67-6,1.54-8.38,.03-2.15-1.36-.16-4.78,1.99-3.41,1.44,.91,4.41-.16,5.85-.57,1.86-.53,4.21-1.16,5.76-2.4,1.97-1.57,4.78,1.21,2.79,2.8h0Z" style="fill:#efd7b6;"/><path id="Path_875" d="M2.79,43.26c1.3,1.08,2.53,.83,3.97-.64,1.83-2.05,4.09-3.67,6.62-4.75,3.72-1.44,4.66-4.52,2.36-8.22-2.16-2.43-4.98-4.18-8.13-5-3.14-.89-6.4,.94-7.28,4.07-.08,.28-.14,.57-.18,.86-.43,3.96,.04,7.97,1.37,11.72,.24,.75,.68,1.42,1.27,1.95Zm1.98-12.43c.92-.6,2.13-.44,2.86,.38,.45,.73,0,1.92-.94,2.49-1.16,.7-2.49,.61-2.96-.19-.39-1.03,.06-2.19,1.05-2.67Zm-1.2,9.15c.87-2.09,2.15-3.98,3.76-5.56,1.36-1.45,3.26-3.43,5.42-3.41,1.94,.01,2.04,3.03,.09,3.02-1.3-.01-2.8,1.89-3.56,2.74-1.15,1.12-2.09,2.43-2.76,3.89-.64,1.82-3.59,1.15-2.94-.68h0Z" style="fill:#efd7b6;"/><path id="Path_867" d="M221.87,39.3c.52,.17,.94,1.02,1.18,1.65,1.07,2.78,3.25,3.29,5.29,1.14,1.44-1.41,2.79-2.91,4.05-4.48,1.73-2.18,2.42-5,1.89-7.73-.26-1.3-.36-2.62-.31-3.94,.1-1.94-.75-2.73-2.6-2.15-.47,.15-.91,.38-1.45,.62-2.42-2.87-3.71-2.77-5.83,.16-.38,.47-.89,.82-1.47,1-2.94,.91-4.01,3.97-3.01,6.72,.39,1.08,.57,2.23,.52,3.38-.09,1.6-.25,3,1.74,3.65Zm2.06-7.29c.69-2.49,2.65-4.12,4.35-3.63s2.66,2.83,2.06,5.08c-.55,2.08-2.74,3.67-4.45,3.24-1.59-.4-2.53-2.66-1.97-4.69h0Z" style="fill:#efd7b6;"/><path id="Path_868" d="M273.87,69.54c-.42-.15-.86-.25-1.27-.4-2.16-.8-2.53-1.96-1.26-3.87,.49-.74,1.01-1.47,1.46-2.23,1.17-1.98,.7-3.87-1.15-4.72-2.11-1.01-4.64-.15-5.7,1.93-.31,.64-.69,1.25-1.12,1.81-.55,.66-1.23,1.08-2.03,.27-.25-.31-.58-.56-.95-.72-.95-.26-2.19-.85-2.82-.48-.9,.62-1.45,1.62-1.51,2.71,.16,1.44-.54,2.84-1.79,3.58-1.3,.84-2,2.36-1.8,3.89,.32,3.06,2.23,4.82,5.48,6.48,1.27,.42,2.56,.76,3.87,1.01,4.8,.71,9.05-.34,12.13-4.41,1.06-1.3,.86-3.22-.44-4.28-.32-.26-.69-.45-1.09-.57Zm-11.05,4.67c-1.43-.7-2.2-2.07-1.71-3.05s2.02-1.29,3.31-.68c1.18,.52,1.8,1.82,1.46,3.06-.42,.92-1.9,1.24-3.06,.66h0Z" style="fill:#efd7b6;"/><path id="Path_872" d="M71.91,43.92c.11,.43,.26,.85,.36,1.29,.5,2.25-.27,3.19-2.56,3.16-.89-.01-1.78-.05-2.67,0-2.3,.1-3.62,1.52-3.33,3.54,.3,2.32,2.4,3.98,4.73,3.73,.71-.08,1.42-.1,2.13-.04,.85,.1,1.57,.44,1.34,1.56-.12,.38-.16,.79-.09,1.19,.3,.93,.48,2.3,1.13,2.63,1.01,.42,2.15,.34,3.09-.21,1.12-.91,2.68-1.09,3.98-.45,1.41,.64,3.07,.4,4.25-.61,2.39-1.94,2.83-4.49,2.45-8.12-.33-1.29-.76-2.56-1.26-3.8-2.02-4.42-5.21-7.4-10.3-7.77-1.67-.18-3.17,1.03-3.35,2.7-.04,.41,0,.83,.12,1.22Zm9.93,6.72c.19,1.58-.54,2.97-1.63,3.09s-2.18-.99-2.37-2.41c-.21-1.27,.55-2.5,1.77-2.89,1-.14,2.07,.92,2.23,2.21h0Z" style="fill:#efd7b6;"/><path id="Path_869" d="M187.71,.64c-1.18-.89-2.82-.84-3.94,.11-2.84,2.05-5.36,4.51-7.48,7.3-1.32,1.48-1.37,3.7-.13,5.24,.97,1.68,2.58,2.88,4.47,3.33,.66,.11,1.34,.06,1.98-.16,.36-.11,.71-.26,1.03-.44,2.93-1.74,5.46-4.09,7.42-6.88,1.52-2.2,1.58-4-.02-5.69-1.02-1.04-2.14-1.98-3.33-2.82Zm-2.54,10.55c-1.19,.13-2.38-1.09-2.58-2.65-.18-1.44,.78-2.99,1.96-3.15,1.09-.15,2.26,1.02,2.42,2.43,.2,1.73-.61,3.24-1.8,3.37Z" style="fill:#efd7b6;"/></g><g id="Group_398"><path id="Path_864-2" d="M457.71,30.14c.4-.34,.78-.71,1.12-1.1,2.11-2.19,2.42-5.55,.74-8.08-2.15-3.43-5.19-6.22-8.78-8.08-3.78-2-7.72-2.65-11.85-.72-2.49,1.16-5.03,1.39-7.47-.45-1.29-.97-2.7-.65-3.98,.36-1.38,1.08-1.36,2.56-1.41,4.06-.09,2.99,.48,3.84,3.4,5.09,.31,.16,.6,.36,.87,.59,1.75,1.51,3.59,2.92,5.5,4.22,4.14,2.49,9.04,3.4,13.79,2.56,2.03-.32,3.88-.55,5.25,1.51,.61,.91,1.88,.83,2.82,.06Zm-14.73-6.1c-1.27,.03-2.36-.88-2.58-2.13,0-.99,1.18-1.89,2.46-1.87,1.57,.03,2.82,.93,2.79,2.01s-1.26,1.99-2.67,1.98h0Zm11.22,3.06c.09,.17,.18,.34,.27,.51-.17-.16-.35-.33-.52-.49-.43-.02-.83-.2-1.12-.51-4.45-4.44-9.46-9.37-16.25-7.21-2.15,.69-3.07-2.7-.93-3.38,8.09-2.57,14.29,2.74,19.66,8.11,.67,.71,.63,1.83-.08,2.5-.28,.26-.64,.43-1.03,.47h0Z" style="fill:#efd7b6;"/><path id="Path_870-2" d="M588.46,36.2c.37,.37,.77,.71,1.19,1.02,2.36,1.91,5.74,1.93,8.12,.03,3.23-2.44,5.74-5.71,7.28-9.45,1.66-3.94,1.96-7.92-.31-11.86-1.37-2.38-1.82-4.89-.2-7.48,.85-1.36,.41-2.75-.7-3.94-1.2-1.28-2.67-1.13-4.16-1.06-2.99,.17-3.78,.81-4.78,3.83-.13,.33-.3,.63-.51,.92-1.35,1.88-2.59,3.83-3.72,5.84-2.12,4.34-2.6,9.3-1.35,13.96,.49,1.99,.89,3.82-1.04,5.36-.85,.68-.66,1.95,.19,2.81Zm4.79-15.2c-.14-1.26,.67-2.43,1.89-2.75,.99-.09,1.99,1.01,2.07,2.29,.11,1.57-.68,2.89-1.76,2.96s-2.09-1.08-2.21-2.49h0Zm-2.07,11.44c-.16,.11-.32,.21-.48,.31,.15-.19,.3-.37,.45-.56-.02-.43,.13-.84,.41-1.16,4.04-4.81,8.51-10.24,5.77-16.82-.87-2.09,2.42-3.29,3.28-1.22,3.26,7.83-1.49,14.47-6.37,20.29-.65,.73-1.77,.79-2.5,.14-.29-.26-.48-.6-.56-.98h0Z" style="fill:#efd7b6;"/><path id="Path_865-2" d="M473.14,62.46c1.81,.78,3.22-.16,4.68-.99,2.1-1.1,3.41-3.29,3.37-5.66,.02-2.4-1.85-3.6-3.78-4.56-2.1-1.05-3.77-.35-4.29,1.91-.41,1.79-.71,5.21-.98,7.51-.1,.75,.3,1.48,.99,1.79Z" style="fill:#efd7b6;"/><path id="Path_873-2" d="M364.14,16.39c1.81,.78,3.22-.16,4.68-.99,2.1-1.1,3.41-3.29,3.37-5.66,.02-2.4-1.85-3.6-3.78-4.56-2.1-1.05-3.77-.35-4.29,1.91-.41,1.79-.71,5.21-.98,7.51-.1,.75,.3,1.48,.99,1.79Z" style="fill:#efd7b6;"/><path id="Path_871-2" d="M431.75,69.73c-1.17,1.59-.57,3.17-.09,4.79,.6,2.3,2.44,4.06,4.76,4.56,2.33,.56,3.92-.99,5.3-2.66,1.49-1.81,1.19-3.59-.9-4.61-1.65-.8-4.91-1.86-7.09-2.64-.71-.26-1.51-.04-1.97,.56Z" style="fill:#efd7b6;"/><path id="Path_874-2" d="M331.61,73.62c1.18,1.59,2.87,1.47,4.55,1.49,2.37,.1,4.59-1.14,5.75-3.21,1.22-2.07,.2-4.04-.99-5.84-1.3-1.96-3.09-2.18-4.67-.49-1.25,1.34-3.22,4.16-4.6,6.01-.46,.6-.48,1.43-.04,2.05Z" style="fill:#efd7b6;"/><path id="Path_866-2" d="M531.59,59.34c-.69-2.1-2.22-2.68-4.85-2.05-3.45,1-7.08,1.23-10.64,.68-5.13-.98-8.31,1.78-8.33,7.48,.7,4.2,2.63,8.09,5.55,11.19,2.62,2.92,8.34,3.93,11.7-.3,3.22-4.1,5.48-8.87,6.61-13.96,.25-1,.23-2.05-.05-3.05Zm-10.82,12.41c-1.47-.01-2.91-1.19-2.91-2.4,0-1.12,1.33-2.14,2.77-2.11,1.77,.03,3.19,1.05,3.15,2.27s-1.42,2.25-3.02,2.24h0Zm7.68-9.32c-2.41,1.71-5.14,2.92-8.03,3.56-2.51,.67-6,1.54-8.38,.03-2.15-1.36-.16-4.78,1.99-3.41,1.44,.91,4.41-.16,5.85-.57,1.86-.53,4.21-1.16,5.76-2.4,1.97-1.57,4.78,1.21,2.79,2.8h0Z" style="fill:#efd7b6;"/><path id="Path_875-2" d="M322.79,43.26c1.3,1.08,2.53,.83,3.97-.64,1.83-2.05,4.09-3.67,6.62-4.75,3.72-1.44,4.66-4.52,2.36-8.22-2.16-2.43-4.98-4.18-8.13-5-3.14-.89-6.4,.94-7.28,4.07-.08,.28-.14,.57-.18,.86-.43,3.96,.04,7.97,1.37,11.72,.24,.75,.68,1.42,1.27,1.95Zm1.98-12.43c.92-.6,2.13-.44,2.86,.38,.45,.73,0,1.92-.94,2.49-1.16,.7-2.49,.61-2.96-.19-.39-1.03,.06-2.19,1.05-2.67Zm-1.2,9.15c.87-2.09,2.15-3.98,3.76-5.56,1.36-1.45,3.26-3.43,5.42-3.41,1.94,.01,2.04,3.03,.09,3.02-1.3-.01-2.8,1.89-3.56,2.74-1.15,1.12-2.09,2.43-2.76,3.89-.64,1.82-3.59,1.15-2.94-.68h0Z" style="fill:#efd7b6;"/><path id="Path_867-2" d="M541.87,39.3c.52,.17,.94,1.02,1.18,1.65,1.07,2.78,3.25,3.29,5.29,1.14,1.44-1.41,2.79-2.91,4.05-4.48,1.73-2.18,2.42-5,1.89-7.73-.26-1.3-.36-2.62-.31-3.94,.1-1.94-.75-2.73-2.6-2.15-.47,.15-.91,.38-1.45,.62-2.42-2.87-3.71-2.77-5.83,.16-.38,.47-.89,.82-1.47,1-2.94,.91-4.01,3.97-3.01,6.72,.39,1.08,.57,2.23,.52,3.38-.09,1.6-.25,3,1.74,3.65Zm2.06-7.29c.69-2.49,2.65-4.12,4.35-3.63s2.66,2.83,2.06,5.08c-.55,2.08-2.74,3.67-4.45,3.24-1.59-.4-2.53-2.66-1.97-4.69h0Z" style="fill:#efd7b6;"/><path id="Path_868-2" d="M593.87,69.54c-.42-.15-.86-.25-1.27-.4-2.16-.8-2.53-1.96-1.26-3.87,.49-.74,1.01-1.47,1.46-2.23,1.17-1.98,.7-3.87-1.15-4.72-2.11-1.01-4.64-.15-5.7,1.93-.31,.64-.69,1.25-1.12,1.81-.55,.66-1.23,1.08-2.03,.27-.25-.31-.58-.56-.95-.72-.95-.26-2.19-.85-2.82-.48-.9,.62-1.45,1.62-1.51,2.71,.16,1.44-.54,2.84-1.79,3.58-1.3,.84-2,2.36-1.8,3.89,.32,3.06,2.23,4.82,5.48,6.48,1.27,.42,2.56,.76,3.87,1.01,4.8,.71,9.05-.34,12.13-4.41,1.06-1.3,.86-3.22-.44-4.28-.32-.26-.69-.45-1.09-.57Zm-11.05,4.67c-1.43-.7-2.2-2.07-1.71-3.05s2.02-1.29,3.31-.68c1.18,.52,1.8,1.82,1.46,3.06-.42,.92-1.9,1.24-3.06,.66h0Z" style="fill:#efd7b6;"/><path id="Path_872-2" d="M391.91,43.92c.11,.43,.26,.85,.36,1.29,.5,2.25-.27,3.19-2.56,3.16-.89-.01-1.78-.05-2.67,0-2.3,.1-3.62,1.52-3.33,3.54,.3,2.32,2.4,3.98,4.73,3.73,.71-.08,1.42-.1,2.13-.04,.85,.1,1.57,.44,1.34,1.56-.12,.38-.16,.79-.09,1.19,.3,.93,.48,2.3,1.13,2.63,1.01,.42,2.15,.34,3.09-.21,1.12-.91,2.68-1.09,3.98-.45,1.41,.64,3.07,.4,4.25-.61,2.39-1.94,2.83-4.49,2.45-8.12-.33-1.29-.76-2.56-1.26-3.8-2.02-4.42-5.21-7.4-10.3-7.77-1.67-.18-3.17,1.03-3.35,2.7-.04,.41,0,.83,.12,1.22Zm9.93,6.72c.19,1.58-.54,2.97-1.63,3.09s-2.18-.99-2.37-2.41c-.21-1.27,.55-2.5,1.77-2.89,1-.14,2.07,.92,2.23,2.21h0Z" style="fill:#efd7b6;"/><path id="Path_869-2" d="M507.71,.64c-1.18-.89-2.82-.84-3.94,.11-2.84,2.05-5.36,4.51-7.48,7.3-1.32,1.48-1.37,3.7-.13,5.24,.97,1.68,2.58,2.88,4.47,3.33,.66,.11,1.34,.06,1.98-.16,.36-.11,.71-.26,1.03-.44,2.93-1.74,5.46-4.09,7.42-6.88,1.52-2.2,1.58-4-.02-5.69-1.02-1.04-2.14-1.98-3.33-2.82Zm-2.54,10.55c-1.19,.13-2.38-1.09-2.58-2.65-.18-1.44,.78-2.99,1.96-3.15,1.09-.15,2.26,1.02,2.42,2.43,.2,1.73-.61,3.24-1.8,3.37Z" style="fill:#efd7b6;"/></g></svg>